<?xml version="1.0" standalone="no"?>
<!DOCTYPE svg PUBLIC "-//W3C//DTD SVG 20010904//EN"
 "http://www.w3.org/TR/2001/REC-SVG-20010904/DTD/svg10.dtd">
<svg version="1.0" xmlns="http://www.w3.org/2000/svg"
 width="531.000000pt" height="60.000000pt" viewBox="0 0 531.000000 60.000000"
 preserveAspectRatio="xMidYMid meet">

<g transform="translate(0.000000,60.000000) scale(0.100000,-0.100000)"
fill="#000000" stroke="none">
<path d="M443 579 c-31 -20 -34 -20 -151 -3 -140 20 -179 15 -229 -29 -30 -26
-63 -80 -63 -102 0 -14 18 -2 28 19 15 34 48 54 102 62 l45 7 -52 -52 c-72
-71 -98 -154 -72 -232 28 -83 118 -149 203 -149 88 0 176 52 211 125 23 50 13
54 -26 11 -28 -32 -76 -66 -94 -66 -3 0 -5 74 -5 164 l0 163 43 6 c44 6 97 51
97 82 0 8 -1 15 -2 14 -2 0 -17 -10 -35 -20z m-257 -357 c-18 -19 -32 -10 -56
38 -38 75 -22 180 37 237 l28 28 3 -144 c2 -115 0 -148 -12 -159z m134 112 l0
-177 -45 7 c-25 3 -55 11 -67 17 -21 11 -20 12 16 43 45 37 55 76 56 199 0 80
2 87 20 87 19 0 20 -7 20 -176z"/>
<path d="M3257 593 c-3 -5 -8 -23 -12 -40 -8 -41 7 -43 33 -5 34 50 35 52 8
52 -14 0 -27 -3 -29 -7z"/>
<path d="M4080 592 c0 -5 -12 -14 -26 -21 -21 -9 -51 -8 -144 5 -137 20 -177
15 -227 -29 -30 -26 -63 -80 -63 -102 0 -14 18 -2 28 19 15 34 48 54 102 62
l45 7 -52 -52 c-72 -71 -96 -149 -73 -233 23 -80 119 -148 210 -148 84 0 184
65 211 138 15 38 3 37 -32 -2 -28 -32 -76 -66 -94 -66 -3 0 -5 74 -5 164 l0
163 43 6 c30 4 50 14 70 37 27 30 36 60 17 60 -5 0 -10 -4 -10 -8z m-274 -370
c-18 -19 -32 -10 -56 38 -38 75 -22 180 37 237 l28 28 3 -144 c2 -115 0 -148
-12 -159z m134 112 l0 -177 -45 7 c-25 3 -55 11 -67 17 -21 11 -20 12 16 43
45 37 55 76 56 199 0 80 2 87 20 87 19 0 20 -7 20 -176z"/>
<path d="M4206 569 c-12 -64 0 -66 38 -9 l26 40 -29 0 c-24 0 -29 -5 -35 -31z"/>
<path d="M589 571 c-22 -17 -27 -17 -44 -5 -27 20 -38 17 -25 -5 14 -27 14
-393 -1 -408 -7 -7 -2 -17 20 -32 l30 -22 31 22 c20 15 27 26 20 33 -5 5 -10
56 -10 112 0 98 1 102 25 118 14 9 30 14 35 11 13 -8 13 -281 0 -306 -6 -10
-34 -32 -63 -49 -62 -35 -43 -40 28 -6 63 29 102 68 115 115 16 57 13 237 -5
270 -22 43 -37 43 -88 -1 l-47 -40 0 83 c0 71 3 86 22 106 21 23 21 23 1 23
-11 0 -31 -9 -44 -19z"/>
<path d="M1615 554 c-102 -60 -145 -114 -145 -179 0 -19 -8 -28 -32 -38 -34
-15 -65 -44 -55 -53 3 -3 14 0 25 7 26 16 48 6 72 -33 38 -62 18 -121 -44
-132 -44 -8 -66 -30 -66 -64 1 -25 2 -25 14 -9 10 12 28 17 67 17 102 0 127
34 128 173 l1 77 46 0 47 0 -6 -66 c-3 -37 -10 -70 -16 -73 -7 -5 4 -22 28
-45 l39 -39 56 49 c55 49 70 69 41 58 -26 -10 -21 116 6 150 l20 26 -20 0
c-20 0 -21 6 -21 79 0 44 3 82 8 84 4 3 17 -3 29 -12 20 -17 22 -27 25 -203 3
-166 5 -188 22 -207 11 -12 22 -21 26 -21 4 0 24 16 46 35 36 32 37 34 14 32
l-25 -2 -3 168 c-2 135 0 173 13 197 16 30 9 40 -12 19 -12 -12 -21 -7 -78 35
-8 6 -31 -5 -68 -33 -31 -22 -59 -41 -62 -41 -3 0 -5 9 -5 20 0 20 -33 60 -47
60 -5 -1 -35 -17 -68 -36z m47 -59 c4 -22 7 -57 7 -77 1 -35 -1 -38 -26 -38
-14 0 -35 -7 -45 -17 -17 -15 -18 -13 -18 57 0 62 3 77 22 97 31 33 51 25 60
-22z m118 -45 c0 -63 -2 -70 -20 -70 -18 0 -20 7 -20 56 0 42 4 60 18 70 9 7
18 14 20 14 1 0 2 -31 2 -70z m-220 -127 c-3 -95 -9 -176 -15 -181 -5 -6 -21
-13 -35 -17 l-25 -7 25 26 c24 26 25 34 28 174 3 81 9 155 14 165 5 10 10 17
11 15 1 -1 0 -80 -3 -175z m220 -79 c0 -66 -2 -75 -17 -72 -15 3 -19 16 -21
76 -3 67 -1 72 18 72 18 0 20 -6 20 -76z"/>
<path d="M5274 476 c5 -24 3 -35 -8 -39 -14 -6 -76 5 -95 17 -6 4 -25 -4 -41
-18 -17 -13 -39 -27 -50 -31 -17 -5 -20 -15 -20 -70 0 -61 1 -65 30 -80 17 -9
30 -19 30 -22 0 -4 -18 -33 -41 -66 -23 -32 -38 -61 -35 -64 4 -4 12 -1 18 5
15 15 79 16 111 1 20 -9 30 -8 53 8 16 10 38 24 49 29 16 9 21 23 23 77 l3 66
-39 23 -40 22 44 64 c49 71 57 112 23 112 -19 0 -20 -4 -15 -34z m-77 -93 l32
-6 -31 -43 c-17 -24 -34 -44 -38 -44 -17 0 -30 29 -30 68 0 38 2 43 18 37 9
-4 31 -9 49 -12z m23 -175 l0 -47 -30 11 c-17 5 -42 8 -55 6 -27 -6 -27 -4 18
59 26 36 32 40 48 30 14 -9 19 -24 19 -59z"/>
<path d="M897 423 c-58 -30 -65 -37 -51 -47 13 -10 15 -27 12 -107 -2 -52 -8
-101 -11 -109 -6 -12 5 -21 45 -38 l52 -22 48 31 c27 18 47 34 44 36 -2 2 -13
-1 -24 -8 -16 -10 -26 -10 -51 1 -27 11 -31 17 -31 51 0 22 3 39 8 39 4 1 31
23 61 50 l55 48 -28 40 c-51 73 -52 74 -129 35z m91 -84 c10 -14 7 -20 -23
-43 l-35 -27 0 71 0 72 23 -29 c12 -15 28 -35 35 -44z"/>
<path d="M2100 422 c-35 -20 -59 -37 -52 -40 16 -5 17 -203 0 -220 -14 -14
-16 -12 48 -41 l51 -23 54 36 c30 20 48 36 41 36 -7 0 -21 -5 -31 -12 -14 -9
-26 -8 -50 2 -26 10 -31 18 -31 46 0 28 9 40 64 87 l65 55 -40 54 c-22 29 -43
54 -47 54 -4 1 -36 -14 -72 -34z m69 -56 c34 -42 33 -46 -9 -76 l-30 -21 0 72
c0 40 2 70 4 68 2 -2 18 -21 35 -43z"/>
<path d="M2313 430 c-38 -35 -40 -40 -13 -33 19 5 20 0 20 -109 0 -74 -4 -118
-12 -126 -9 -9 -7 -13 8 -18 10 -4 31 -16 46 -26 l28 -19 40 32 c22 18 40 37
40 42 0 5 -7 4 -15 -3 -8 -6 -23 -9 -35 -5 -19 6 -20 14 -20 115 0 67 4 111
11 115 6 4 21 -3 35 -16 23 -22 24 -22 44 -4 25 23 25 26 -1 59 l-20 26 -35
-26 -34 -26 -21 26 c-11 14 -23 26 -27 26 -4 0 -22 -14 -39 -30z"/>
<path d="M2610 442 c-25 -9 -46 -17 -48 -18 -2 -1 10 -23 26 -50 l29 -49 -31
-44 c-41 -57 -43 -118 -5 -156 l25 -26 44 35 44 35 17 -29 c25 -40 31 -42 68
-13 32 26 33 27 12 34 -20 8 -21 15 -21 116 0 75 5 117 15 136 l14 28 -33 -6
c-20 -4 -47 -1 -71 9 -20 9 -38 15 -39 15 0 -1 -21 -9 -46 -17z m43 -48 c45
-15 47 -17 47 -55 0 -21 -4 -39 -10 -39 -25 0 -60 26 -79 60 -32 58 -31 59 42
34z m11 -99 c33 -14 36 -19 36 -57 0 -42 -21 -78 -46 -78 -30 0 -52 75 -38
128 7 26 3 26 48 7z"/>
<path d="M2878 431 c-25 -23 -29 -30 -15 -31 15 0 17 -12 17 -110 0 -103 -1
-110 -20 -110 -11 0 -20 -7 -20 -15 0 -8 9 -15 20 -15 17 0 20 -7 20 -47 0
-29 -6 -53 -17 -65 -19 -21 -8 -23 27 -4 21 12 27 12 49 -5 13 -10 31 -19 39
-19 13 0 13 3 -1 18 -16 17 -25 92 -11 92 3 0 13 -4 23 -9 13 -7 30 -1 69 25
l52 35 0 87 c0 107 -13 155 -47 182 l-27 21 -36 -36 c-41 -40 -50 -43 -50 -17
0 11 -9 27 -19 36 -18 17 -21 16 -53 -13z m140 -43 c8 -8 12 -49 12 -119 l0
-107 -35 11 -35 10 0 90 c0 70 4 95 17 109 19 21 25 22 41 6z"/>
<path d="M3203 434 c-19 -17 -24 -27 -15 -31 15 -6 17 -219 2 -228 -16 -10
-12 -18 25 -48 l34 -27 33 30 c27 25 29 30 13 28 -19 -3 -20 4 -23 116 -1 69
2 123 7 130 8 9 2 19 -19 34 l-29 22 -28 -26z"/>
<path d="M4158 436 c-23 -21 -25 -26 -13 -36 18 -15 21 -173 5 -216 -10 -24
-7 -31 19 -58 l30 -29 35 27 c20 15 36 32 36 38 0 7 -4 7 -13 -1 -8 -6 -17 -8
-20 -4 -11 11 -8 241 3 248 8 5 -39 56 -51 55 -2 0 -16 -11 -31 -24z"/>
<path d="M4327 433 c-40 -31 -47 -46 -19 -41 15 3 17 -9 20 -106 2 -66 -1
-113 -8 -120 -15 -15 -13 -20 20 -44 l30 -23 30 23 c27 19 28 23 15 38 -11 12
-15 41 -15 107 0 82 2 91 25 113 20 19 27 21 40 10 12 -10 15 -35 15 -112 0
-55 -4 -108 -10 -118 -8 -15 -4 -23 21 -41 l31 -22 26 27 c21 20 24 28 14 38
-8 8 -12 46 -12 108 0 94 1 97 28 117 28 20 29 20 40 2 7 -11 12 -62 12 -132
0 -100 2 -116 20 -135 23 -24 40 -20 74 17 19 21 19 21 -2 21 -21 0 -22 4 -22
110 0 88 4 116 17 137 17 26 17 26 -2 15 -17 -9 -24 -6 -46 14 l-26 24 -46
-40 -46 -41 -7 25 c-3 13 -14 32 -24 41 -18 16 -22 15 -67 -24 -47 -40 -48
-40 -51 -17 -2 13 -11 31 -21 40 -16 15 -20 14 -54 -11z"/>
<path d="M4848 422 c-56 -29 -65 -37 -52 -47 13 -9 15 -29 12 -105 -2 -52 -7
-102 -11 -110 -6 -12 5 -21 45 -38 l52 -22 48 31 c27 18 47 34 44 36 -2 2 -13
-1 -24 -8 -16 -10 -26 -10 -51 1 -27 11 -31 17 -30 49 0 32 7 42 60 85 37 30
58 54 55 62 -7 19 -70 103 -76 103 -3 -1 -35 -17 -72 -37z m90 -83 c10 -14 7
-20 -23 -43 l-35 -27 0 71 0 72 23 -29 c12 -15 28 -35 35 -44z"/>
</g>
</svg>
