<?xml version="1.0" standalone="no"?>
<!DOCTYPE svg PUBLIC "-//W3C//DTD SVG 20010904//EN"
 "http://www.w3.org/TR/2001/REC-SVG-20010904/DTD/svg10.dtd">
<svg version="1.0" xmlns="http://www.w3.org/2000/svg"
 width="185.000000pt" height="21.000000pt" viewBox="0 0 185.000000 21.000000"
 preserveAspectRatio="xMidYMid meet">

<g transform="translate(0.000000,21.000000) scale(0.100000,-0.100000)"
fill="#000000" stroke="none">
<path d="M1141 194 c0 -11 3 -14 6 -6 3 7 2 16 -1 19 -3 4 -6 -2 -5 -13z"/>
<path d="M32 193 c-7 -2 -17 -14 -24 -26 -11 -22 -11 -22 10 -3 34 30 52 14
52 -46 0 -40 3 -49 12 -40 6 6 15 31 19 54 6 41 7 40 8 -19 1 -70 -9 -78 -48
-42 -19 18 -22 29 -18 60 6 47 0 50 -17 7 -39 -92 89 -154 135 -65 12 21 11
21 -8 4 -11 -9 -23 -17 -26 -17 -4 0 -7 25 -7 55 0 40 4 55 14 55 7 0 18 6 24
13 8 9 -3 12 -51 14 -34 1 -68 -1 -75 -4z"/>
<path d="M187 115 c1 -55 5 -80 13 -80 9 0 13 25 14 80 1 66 -2 81 -14 81 -12
0 -15 -15 -13 -81z"/>
<path d="M553 180 c-18 -11 -35 -31 -39 -45 -3 -14 -11 -25 -18 -25 -6 0 -3
-5 7 -11 24 -14 22 -55 -3 -62 -34 -9 -23 -25 13 -18 l32 7 -4 62 c-3 59 8 92
30 92 16 0 9 -42 -8 -56 -17 -13 -17 -13 0 -14 12 0 17 -8 17 -29 0 -16 6 -34
14 -40 24 -20 40 14 38 80 -1 34 2 59 8 59 6 0 10 -28 10 -62 0 -61 12 -100
25 -86 4 4 8 40 8 81 1 42 0 74 -2 71 -2 -2 -10 1 -17 7 -9 7 -19 7 -33 0 -13
-7 -22 -8 -26 -1 -9 14 -15 13 -52 -10z m64 -42 c-3 -7 -5 -2 -5 12 0 14 2 19
5 13 2 -7 2 -19 0 -25z m0 -65 c-3 -10 -5 -4 -5 12 0 17 2 24 5 18 2 -7 2 -21
0 -30z"/>
<path d="M1287 182 c-21 -23 -22 -39 -1 -18 32 33 56 12 52 -45 -4 -58 -23
-52 -23 7 0 45 0 45 -17 23 -10 -11 -18 -32 -18 -46 0 -29 41 -73 69 -73 29 0
69 20 76 39 5 13 4 14 -6 4 -23 -23 -29 -14 -29 41 0 45 3 54 20 59 39 10 19
22 -43 25 -51 2 -66 -1 -80 -16z m93 -72 c0 -46 -3 -60 -14 -60 -19 0 -29 17
-16 25 5 3 10 26 10 51 0 24 5 44 10 44 6 0 10 -27 10 -60z"/>
<path d="M1470 189 c0 -5 5 -7 10 -4 6 3 10 8 10 11 0 2 -4 4 -10 4 -5 0 -10
-5 -10 -11z"/>
<path d="M1786 145 c-9 -7 -16 -21 -16 -32 0 -25 25 -49 35 -33 8 13 25 3 25
-14 0 -8 -9 -12 -23 -9 -13 3 -29 -2 -35 -10 -10 -11 -6 -14 21 -13 42 2 57
12 57 40 0 31 -22 50 -38 34 -9 -9 -12 -8 -12 6 0 13 5 17 19 13 11 -3 22 1
25 8 6 18 -37 25 -58 10z"/>
<path d="M225 140 c-3 -5 -1 -10 4 -10 18 0 13 -91 -6 -114 -18 -20 -18 -20 7
-5 28 18 46 73 36 113 -6 26 -29 35 -41 16z"/>
<path d="M313 143 c-20 -8 -17 -99 4 -107 9 -4 21 -2 27 4 7 7 6 10 -1 10 -7
0 -12 17 -11 42 0 31 3 37 10 24 13 -24 31 -10 18 15 -11 19 -23 22 -47 12z"/>
<path d="M733 143 c-20 -8 -17 -99 4 -107 9 -4 21 -2 27 4 7 7 6 10 -1 10 -7
0 -12 17 -11 42 0 36 2 39 13 25 16 -22 27 -10 14 14 -10 19 -22 22 -46 12z"/>
<path d="M810 96 c0 -56 13 -73 41 -55 10 6 10 9 2 9 -8 0 -13 15 -13 40 0 30
4 40 14 38 8 -2 15 1 16 7 0 5 -13 11 -30 12 -30 3 -30 3 -30 -51z"/>
<path d="M900 140 c0 -5 3 -9 8 -9 25 4 32 -4 32 -38 0 -40 14 -72 26 -61 3 4
7 32 8 62 l1 56 -37 0 c-21 0 -38 -4 -38 -10z"/>
<path d="M1005 76 c0 -62 2 -72 18 -72 9 0 17 5 17 11 0 7 11 18 25 25 20 10
25 21 25 49 0 48 -8 57 -50 58 l-35 1 0 -72z m55 13 c0 -24 -4 -38 -10 -34 -5
3 -10 22 -10 41 0 19 5 34 10 34 6 0 10 -18 10 -41z"/>
<path d="M1120 97 c0 -56 5 -68 23 -61 18 6 9 114 -9 114 -10 0 -14 -14 -14
-53z"/>
<path d="M1450 96 c0 -51 10 -73 28 -63 4 3 5 30 4 61 -3 40 -8 56 -18 56 -10
0 -14 -14 -14 -54z"/>
<path d="M1517 93 c1 -34 6 -58 12 -58 6 0 11 3 11 8 0 4 0 30 0 57 0 33 -4
50 -13 50 -8 0 -12 -17 -10 -57z"/>
<path d="M1555 140 c-3 -5 -1 -10 5 -10 7 0 10 -17 9 -47 -3 -35 0 -48 10 -48
10 0 14 14 13 48 -1 68 -1 67 -16 67 -8 0 -18 -4 -21 -10z"/>
<path d="M1605 141 c-3 -6 -1 -11 4 -11 6 0 11 -19 11 -43 0 -47 5 -58 24 -51
19 7 5 108 -16 112 -9 2 -19 -2 -23 -7z"/>
<path d="M1693 143 c-20 -8 -17 -99 4 -107 9 -4 21 -2 27 4 7 7 6 10 -2 10 -7
0 -12 16 -12 41 0 26 4 38 11 34 6 -4 8 -14 4 -24 -5 -14 -4 -14 11 1 14 14
15 20 4 32 -13 16 -25 18 -47 9z"/>
<path d="M902 88 c-8 -23 -9 -35 -1 -45 16 -18 31 -6 20 15 -6 11 -6 24 0 34
5 9 6 19 1 22 -4 2 -13 -9 -20 -26z"/>
</g>
</svg>
