<?xml version="1.0" standalone="no"?>
<!DOCTYPE svg PUBLIC "-//W3C//DTD SVG 20010904//EN"
 "http://www.w3.org/TR/2001/REC-SVG-20010904/DTD/svg10.dtd">
<svg version="1.0" xmlns="http://www.w3.org/2000/svg"
 width="1726.000000pt" height="195.000000pt" viewBox="0 0 1726.000000 195.000000"
 preserveAspectRatio="xMidYMid meet">

<g transform="translate(0.000000,195.000000) scale(0.100000,-0.100000)"
fill="#000000" stroke="none">
<path d="M10586 1939 c-3 -8 -14 -59 -26 -114 -11 -55 -24 -110 -27 -123 -5
-21 -3 -23 27 -20 28 3 43 18 126 131 l94 127 -49 0 c-26 0 -69 3 -94 6 -35 5
-48 3 -51 -7z"/>
<path d="M13696 1939 c-3 -8 -14 -61 -26 -119 -12 -58 -24 -113 -27 -123 -4
-15 0 -18 27 -15 28 3 43 18 126 131 l94 127 -49 0 c-26 0 -69 3 -94 6 -35 5
-48 3 -51 -7z"/>
<path d="M1484 1891 c-68 -63 -114 -76 -247 -68 -56 4 -185 20 -287 37 -223
37 -396 48 -497 31 -202 -35 -369 -191 -434 -405 -14 -46 -16 -62 -6 -68 19
-12 20 -11 49 40 61 109 163 195 268 226 55 16 230 23 230 8 0 -4 -12 -15 -27
-24 -60 -35 -181 -148 -235 -219 -106 -139 -158 -289 -158 -460 0 -124 13
-184 60 -284 82 -177 242 -309 445 -367 115 -32 299 -32 405 1 135 42 225 96
326 196 95 94 146 177 177 282 14 46 14 52 0 57 -21 9 -21 9 -38 -23 -25 -49
-114 -154 -168 -199 -52 -43 -167 -104 -219 -116 l-28 -6 0 544 0 545 68 -6
c78 -6 174 15 239 53 83 48 146 145 155 239 5 45 -20 41 -78 -14z m-826 -663
c-3 -510 -1 -490 -68 -553 l-32 -30 -48 54 c-60 68 -104 140 -132 217 -30 83
-37 264 -13 370 22 99 93 237 154 302 46 47 115 100 134 101 5 1 7 -207 5
-461z m327 409 l60 -13 3 -552 2 -552 -25 -6 c-14 -4 -65 -4 -113 -2 -93 5
-186 32 -259 74 l-42 25 72 62 c120 102 173 163 192 220 15 45 18 102 23 405
3 253 8 352 16 352 6 -1 38 -6 71 -13z"/>
<path d="M13272 1910 c-12 -16 -43 -42 -69 -57 -46 -27 -54 -28 -168 -27 -86
1 -177 10 -320 34 -164 28 -228 34 -355 34 -138 1 -163 -2 -223 -22 -137 -48
-235 -135 -306 -272 -49 -96 -69 -166 -51 -183 9 -9 15 -8 24 7 87 143 136
192 236 239 57 27 77 31 177 35 62 3 113 2 113 -1 0 -3 -28 -25 -62 -50 -71
-50 -181 -160 -229 -226 -43 -60 -95 -172 -116 -251 -13 -47 -18 -99 -17 -190
1 -107 4 -137 27 -205 111 -336 502 -534 869 -440 193 50 387 203 473 375 31
62 58 147 50 160 -13 21 -32 6 -75 -62 -61 -96 -155 -180 -254 -228 -45 -21
-91 -42 -103 -45 l-23 -6 0 545 0 545 55 -6 c125 -13 266 42 334 131 36 47 71
134 71 178 0 28 -34 22 -58 -12z m-862 -1151 c-6 -22 -27 -56 -47 -76 l-37
-36 -58 61 c-67 72 -131 196 -147 286 -47 261 68 561 259 675 l35 21 3 -446
c1 -289 -2 -460 -8 -485z m358 874 l42 -6 0 -552 c0 -495 -2 -553 -16 -559
-26 -10 -149 -7 -206 5 -61 13 -210 78 -206 90 2 4 46 45 98 91 117 103 154
156 169 241 6 38 11 195 11 387 l0 323 33 -7 c17 -4 51 -9 75 -13z"/>
<path d="M2025 1896 c-58 -19 -120 -52 -159 -87 l-35 -30 -52 41 c-63 49 -106
73 -119 65 -17 -11 -11 -26 24 -66 19 -20 39 -55 45 -76 13 -44 16 -1213 4
-1213 -5 -1 -25 -15 -46 -33 l-37 -32 94 -78 c52 -42 98 -77 101 -77 4 0 51
32 105 72 l99 72 -34 42 -35 42 0 316 0 315 86 67 87 68 32 -36 c45 -49 48
-89 42 -510 -5 -352 -9 -396 -50 -473 -30 -58 -105 -116 -259 -199 -80 -44
-102 -66 -79 -80 11 -7 165 55 281 115 205 105 297 214 331 393 5 27 9 205 9
396 0 417 -1 423 -91 513 -32 32 -63 57 -69 55 -5 -2 -79 -61 -165 -131 l-156
-128 3 268 c3 262 4 269 27 306 13 21 41 50 62 64 68 45 42 67 -46 39z"/>
<path d="M5281 1800 c-237 -135 -269 -157 -352 -239 -101 -100 -144 -202 -156
-364 -6 -84 -7 -88 -32 -93 -93 -20 -132 -37 -175 -75 -43 -38 -76 -85 -76
-108 0 -21 40 -22 62 -1 91 87 224 25 293 -135 22 -52 31 -187 16 -243 -24
-87 -82 -126 -225 -151 -125 -23 -181 -82 -193 -205 l-6 -66 26 0 c20 0 28 6
33 24 3 13 17 35 31 48 24 22 29 23 172 20 214 -5 305 28 365 130 49 84 58
142 63 431 l6 267 138 0 139 0 0 -200 c0 -213 -6 -247 -50 -270 -31 -16 -24
-34 28 -76 26 -21 82 -71 124 -112 l77 -74 185 163 c174 153 184 164 169 181
-15 17 -18 16 -54 -13 l-39 -31 0 219 1 218 60 80 60 80 -60 3 -61 3 0 259 0
260 25 16 c25 16 27 15 103 -44 l77 -60 5 -583 c5 -545 6 -587 24 -622 18 -37
109 -127 128 -127 8 0 210 153 253 192 6 5 1 16 -11 29 l-21 20 -30 -25 c-39
-33 -46 -33 -78 5 l-26 32 3 531 c3 588 0 555 72 649 l36 47 -25 12 c-23 11
-29 8 -70 -32 -32 -32 -48 -41 -57 -33 -7 5 -59 47 -116 92 -58 46 -109 80
-117 78 -7 -3 -95 -65 -194 -136 -100 -72 -183 -131 -185 -131 -3 0 -8 21 -11
48 -10 70 -37 122 -83 164 -73 66 -58 69 -271 -52z m76 -82 c52 -55 53 -62 53
-292 l0 -216 -94 0 -94 0 -47 -62 -46 -63 3 245 c3 232 4 247 26 288 23 44
125 132 153 132 8 0 29 -15 46 -32z m443 -268 l0 -240 -75 0 -75 0 0 188 1
187 72 52 c40 28 73 52 75 52 1 1 2 -107 2 -239z m-695 163 c-23 -57 -28 -133
-34 -598 -6 -486 -7 -512 -26 -544 -33 -55 -64 -73 -141 -77 -68 -5 -69 -5
-44 13 52 36 97 92 110 134 9 31 15 177 20 484 5 286 11 453 19 476 6 20 30
57 52 83 43 49 56 57 44 29z m695 -807 c0 -231 0 -235 -22 -250 -26 -18 -61
-21 -88 -6 -32 17 -40 76 -40 288 l0 202 75 0 75 0 0 -234z"/>
<path d="M17139 1642 c-29 -24 -29 -69 -1 -110 30 -42 29 -85 -4 -111 -50 -39
-195 -23 -326 36 l-58 26 -42 -48 c-52 -59 -140 -117 -202 -135 -25 -7 -50
-18 -56 -25 -7 -8 -9 -84 -8 -211 l3 -199 105 -57 c58 -32 104 -62 103 -67 -2
-6 -66 -99 -143 -207 -168 -233 -173 -259 -43 -186 65 35 72 37 163 37 90 0
100 -2 178 -39 l82 -39 38 29 c62 49 133 90 209 120 l73 29 0 227 0 227 -27
15 c-16 8 -70 39 -120 68 l-93 54 116 160 c135 185 174 258 174 327 0 81 -65
123 -121 79z m-236 -411 l98 -6 -103 -147 c-57 -81 -107 -147 -112 -148 -5 0
-33 14 -62 31 l-54 30 0 154 0 154 68 -31 c54 -25 85 -32 165 -37z m8 -383
l59 -33 0 -157 0 -157 -54 25 c-80 36 -156 48 -232 34 -35 -6 -71 -13 -80 -17
-8 -3 40 71 107 166 67 94 127 171 132 171 5 0 36 -15 68 -32z"/>
<path d="M3075 1438 c-38 -22 -139 -74 -223 -115 -84 -41 -150 -78 -147 -83 3
-5 19 -11 35 -15 21 -5 32 -14 38 -33 4 -15 7 -160 7 -322 0 -269 -2 -298 -19
-333 -10 -21 -27 -42 -37 -48 -36 -19 -21 -36 49 -53 37 -9 118 -42 180 -73
l112 -56 165 109 c90 60 165 114 165 121 0 29 -27 21 -103 -29 l-81 -54 -103
51 -103 50 1 105 0 105 210 174 c115 96 209 177 209 180 0 8 -270 356 -278
358 -4 2 -38 -16 -77 -39z m62 -253 l112 -144 -114 -95 c-63 -53 -117 -96
-120 -96 -3 0 -5 108 -5 240 0 132 3 240 8 239 4 0 57 -65 119 -144z"/>
<path d="M6923 1406 c-73 -40 -173 -91 -223 -112 -49 -21 -90 -42 -90 -46 0
-3 17 -15 38 -25 l37 -18 3 -315 c2 -332 1 -349 -44 -391 -13 -12 -24 -28 -24
-34 0 -6 37 -22 83 -35 45 -13 125 -46 178 -73 l95 -49 167 109 c92 59 167
110 167 113 0 3 -4 12 -9 19 -8 12 -25 5 -93 -41 l-83 -55 -103 51 -102 51 0
105 0 105 210 175 c116 96 209 178 207 181 -4 13 -272 358 -277 358 -3 0 -64
-33 -137 -73z m116 -216 c61 -76 111 -143 111 -148 0 -8 -184 -165 -217 -185
-11 -7 -13 36 -13 233 0 132 2 240 4 240 3 0 54 -63 115 -140z"/>
<path d="M7523 1384 c-99 -84 -111 -98 -102 -115 10 -19 12 -18 46 10 35 29
38 29 55 14 35 -32 40 -79 36 -398 -3 -287 -5 -313 -22 -340 -11 -17 -28 -36
-38 -43 -31 -22 -20 -39 40 -61 64 -23 166 -85 196 -119 11 -12 23 -22 28 -22
7 0 223 168 272 211 9 8 -10 39 -24 39 -4 0 -27 -16 -51 -35 -24 -19 -48 -35
-53 -35 -5 0 -33 18 -63 40 l-53 41 0 323 0 323 45 42 c25 23 49 40 53 37 5
-3 35 -39 68 -80 32 -42 62 -76 67 -76 4 0 40 30 80 67 40 37 73 68 75 69 5 3
-160 204 -167 204 -3 0 -51 -41 -105 -90 l-100 -89 -38 59 c-33 49 -108 120
-127 120 -4 0 -57 -43 -118 -96z"/>
<path d="M8599 1456 c-53 -36 -150 -66 -224 -69 -36 -1 -65 -3 -65 -4 0 0 44
-80 98 -176 l99 -174 -42 -51 c-62 -75 -114 -156 -143 -225 -21 -50 -26 -78
-27 -147 0 -78 3 -90 34 -147 30 -56 118 -153 138 -153 4 0 75 54 158 120
l149 119 13 -50 c7 -27 19 -62 27 -77 19 -36 85 -112 97 -112 6 0 63 41 129
92 100 78 117 95 109 110 -9 17 -12 17 -34 2 -13 -8 -36 -14 -52 -12 -52 6
-54 20 -51 409 l3 356 36 71 c29 57 34 74 24 82 -10 8 -23 4 -50 -15 -23 -15
-52 -25 -72 -25 -52 0 -149 27 -232 66 -41 19 -77 34 -80 34 -4 0 -23 -11 -42
-24z m1 -184 l175 -59 3 -138 c2 -108 0 -136 -10 -132 -7 2 -58 24 -113 47
l-100 42 -80 145 c-95 171 -92 167 -69 159 11 -3 98 -32 194 -64z m75 -338
l100 -42 3 -140 3 -140 -77 -62 -76 -63 -38 38 c-21 21 -53 65 -70 97 -29 54
-32 68 -31 143 0 72 21 191 38 218 6 10 26 4 148 -49z"/>
<path d="M9352 1392 c-87 -70 -108 -92 -101 -104 8 -14 14 -14 39 -5 26 10 33
9 53 -11 22 -22 22 -26 25 -352 l3 -329 -23 -5 c-13 -3 -43 -9 -68 -13 -44 -9
-45 -9 -45 -48 0 -39 1 -40 35 -43 19 -1 50 -5 68 -8 l32 -5 0 -117 c0 -145
-10 -182 -65 -241 -30 -32 -41 -51 -36 -60 7 -11 20 -8 67 13 32 15 73 38 91
52 l33 25 47 -36 c49 -37 154 -92 188 -97 36 -6 28 30 -18 74 -28 27 -49 58
-56 83 -12 43 -15 225 -4 225 3 0 39 -18 80 -40 l74 -41 46 41 c55 48 164 121
228 152 l45 22 0 333 c0 198 -4 352 -11 382 -14 65 -52 116 -139 187 l-71 57
-32 -29 c-18 -17 -77 -72 -132 -124 l-100 -94 -6 45 c-10 64 -23 93 -65 139
-63 69 -59 70 -182 -28z m440 -135 c25 -19 48 -47 55 -67 8 -24 12 -136 12
-361 l1 -327 -57 24 c-32 13 -88 31 -125 41 l-68 17 0 290 0 290 62 63 c34 35
66 63 69 63 4 0 27 -15 51 -33z"/>
<path d="M10415 1409 c-50 -38 -91 -73 -93 -78 -1 -4 16 -22 39 -40 l41 -33
-4 -337 c-3 -308 -5 -339 -22 -365 -10 -16 -27 -31 -37 -33 -30 -8 -22 -28 21
-57 22 -14 71 -56 110 -92 38 -36 73 -64 78 -62 22 8 231 174 231 183 1 6 -4
16 -10 22 -9 9 -20 5 -45 -14 l-34 -25 -35 26 -35 27 0 357 0 356 40 41 39 40
-91 75 c-51 41 -94 76 -97 78 -4 1 -47 -30 -96 -69z"/>
<path d="M13525 1409 c-50 -38 -91 -73 -93 -78 -1 -4 16 -22 39 -40 l41 -33
-4 -337 c-3 -308 -5 -339 -22 -365 -10 -16 -27 -31 -37 -33 -30 -8 -22 -28 21
-57 22 -14 71 -56 110 -92 38 -36 73 -64 78 -62 22 8 231 174 231 183 1 6 -4
16 -10 22 -9 9 -20 5 -45 -14 l-34 -25 -35 26 -35 27 0 357 0 356 40 41 39 40
-94 78 c-51 42 -95 77 -97 77 -2 0 -44 -32 -93 -71z"/>
<path d="M14085 1407 c-50 -40 -103 -82 -119 -95 -27 -21 -28 -24 -13 -39 13
-14 21 -15 42 -5 38 17 63 15 75 -7 6 -13 10 -147 10 -368 l0 -349 -35 -34
c-19 -19 -35 -37 -35 -41 0 -8 186 -159 196 -159 4 0 45 32 93 72 47 39 88 73
90 75 3 2 -14 23 -37 46 l-42 43 0 310 0 311 80 68 81 68 25 -24 c14 -13 35
-41 45 -61 18 -34 19 -62 19 -360 l0 -322 -37 -38 c-20 -21 -35 -39 -32 -41
54 -45 189 -147 194 -147 6 0 138 104 180 142 5 5 -8 25 -33 51 l-42 43 0 310
0 310 84 72 83 71 41 -42 41 -42 4 -365 c4 -404 5 -413 68 -483 71 -82 72 -82
193 19 58 49 106 91 106 94 0 3 -5 12 -10 20 -8 13 -13 13 -39 -3 -33 -19 -63
-12 -75 19 -3 8 -6 166 -6 350 0 371 0 371 66 443 35 39 36 43 21 59 -16 15
-20 13 -63 -28 l-45 -45 -82 89 -83 89 -146 -127 c-81 -69 -152 -126 -158
-126 -5 0 -10 8 -10 18 0 62 -63 164 -130 212 l-30 21 -152 -130 -153 -130 -6
63 c-6 73 -32 121 -89 166 -21 16 -39 30 -41 30 -2 -1 -45 -33 -94 -73z"/>
<path d="M15850 1404 c-74 -41 -174 -91 -222 -112 -48 -20 -88 -40 -88 -44 0
-3 17 -15 38 -25 l37 -18 3 -318 c2 -280 0 -321 -14 -350 -9 -17 -25 -38 -35
-45 -35 -24 -20 -38 64 -62 45 -13 126 -46 179 -73 l97 -50 165 109 c91 60
166 111 166 114 0 3 -4 12 -9 19 -8 12 -25 5 -93 -41 l-83 -55 -103 51 -102
51 0 105 1 105 209 175 c116 96 210 176 210 178 0 7 -272 357 -278 359 -4 1
-68 -32 -142 -73z m124 -218 c58 -74 106 -139 106 -144 0 -8 -184 -165 -217
-186 -10 -6 -13 44 -13 234 0 133 4 239 9 236 4 -3 56 -66 115 -140z"/>
</g>
</svg>
