<?xml version="1.0" encoding="UTF-8"?>
<svg version="1.1" xmlns="http://www.w3.org/2000/svg" width="1726" height="195">
<path d="M0 0 C3.40484761 1.95278025 6.21934509 4.30905498 9.15625 6.8984375 C10.80855777 8.33222661 12.46214222 9.764331 14.12109375 11.19042969 C15.53613061 12.41913535 16.925634 13.67708355 18.3125 14.9375 C20.47175385 16.73091185 20.47175385 16.73091185 22.734375 16.46484375 C24.95146824 15.37882856 26.57526776 14.11586376 28.40625 12.4609375 C29.32664062 11.63916016 29.32664062 11.63916016 30.265625 10.80078125 C30.72453125 10.37925781 31.1834375 9.95773437 31.65625 9.5234375 C33.30625 10.1834375 34.95625 10.8434375 36.65625 11.5234375 C36.05267079 14.87665531 34.86779466 16.78175231 32.71875 19.3984375 C26.39512481 27.59797064 26.50574602 37.20820125 26.51098633 47.16479492 C26.50762772 48.09427444 26.5042691 49.02375397 26.50080872 49.98139954 C26.49136764 53.0305823 26.48935956 56.07970982 26.48828125 59.12890625 C26.48506565 61.25783816 26.48170135 63.38676985 26.47819519 65.51570129 C26.47222233 69.96644605 26.47035357 74.41717144 26.47094727 78.86791992 C26.47104918 84.57091124 26.45735824 90.27377889 26.44017506 95.97674084 C26.42906328 100.36819531 26.42702775 104.75961971 26.42755699 109.15108681 C26.42637713 111.25422914 26.42195501 113.35737226 26.41422462 115.46050072 C26.40443454 118.39717731 26.40729816 121.33358278 26.41333008 124.27026367 C26.40771057 125.13738983 26.40209106 126.00451599 26.39630127 126.8979187 C26.41865512 131.177755 26.51611653 134.68656637 28.65625 138.5234375 C30.67360205 139.86754012 30.67360205 139.86754012 32.65625 140.5234375 C33.39875 139.8428125 34.14125 139.1621875 34.90625 138.4609375 C37.65625 136.5234375 37.65625 136.5234375 39.84375 136.5234375 C42.15896433 137.80079713 42.57741604 139.16616153 43.65625 141.5234375 C35.07761505 148.31274179 26.4433605 155.00552586 17.65625 161.5234375 C10.68314306 158.10803818 5.40908109 153.58681867 2.28125 146.3359375 C0.2794226 134.12479035 0.59002547 121.86426178 0.7015419 109.53404999 C0.75375097 102.69771075 0.74729515 95.86109997 0.75290108 89.02459335 C0.7611446 83.03830123 0.78927859 77.05330361 0.85839844 71.06738281 C0.9245027 65.24223369 0.93688711 59.41914628 0.91314316 53.59369659 C0.91375188 51.38491951 0.93373986 49.17605557 0.97391129 46.96764374 C1.74239668 34.87686952 1.74239668 34.87686952 -2.70123291 24.15441895 C-6.89366352 20.56628601 -10.77847905 18.0996455 -16.34375 17.5234375 C-17.33375 17.8534375 -18.32375 18.1834375 -19.34375 18.5234375 C-19.34375 35.6834375 -19.34375 52.8434375 -19.34375 70.5234375 C-15.05375 70.5234375 -10.76375 70.5234375 -6.34375 70.5234375 C-11.9769338 79.10733663 -11.9769338 79.10733663 -13.82104492 81.19921875 C-18.36139974 86.53739949 -19.17923929 90.37915328 -18.9296875 97.2734375 C-18.92119781 98.17215576 -18.91270813 99.07087402 -18.90396118 99.99682617 C-18.87063052 102.84029966 -18.79539469 105.68083546 -18.71875 108.5234375 C-18.68862389 110.46219835 -18.66125274 112.40100408 -18.63671875 114.33984375 C-18.57090656 119.06882363 -18.4675311 123.79563424 -18.34375 128.5234375 C-17.56644531 127.85828125 -16.78914062 127.193125 -15.98828125 126.5078125 C-13.34375 124.5234375 -13.34375 124.5234375 -11.03125 124.7734375 C-10.474375 125.0209375 -9.9175 125.2684375 -9.34375 125.5234375 C-9.01375 126.8434375 -8.68375 128.1634375 -8.34375 129.5234375 C-9.22675781 130.27367187 -10.10976563 131.02390625 -11.01953125 131.796875 C-17.73603187 137.51934858 -24.36392324 143.30990479 -30.875 149.265625 C-33.14606863 151.34264663 -35.42181993 153.41255584 -37.71875 155.4609375 C-38.30398438 155.98558594 -38.88921875 156.51023438 -39.4921875 157.05078125 C-41.65864022 158.77388816 -43.94705776 160.14389815 -46.34375 161.5234375 C-46.78654297 161.0701709 -47.22933594 160.6169043 -47.68554688 160.14990234 C-49.73277328 158.06060234 -51.78817601 155.97952394 -53.84375 153.8984375 C-54.53984375 153.18558594 -55.2359375 152.47273437 -55.953125 151.73828125 C-60.01298961 147.6408253 -64.01606078 144.13012665 -68.89257812 141.02978516 C-70.34375 139.5234375 -70.34375 139.5234375 -70.71289062 137.01318359 C-70.17227202 133.36686841 -67.98362764 131.97015337 -65.34375 129.5234375 C-64.03454497 125.5958224 -64.10912132 121.79773119 -64.02734375 117.69921875 C-64.00656265 116.83781784 -63.98578156 115.97641693 -63.96437073 115.08891296 C-63.89900091 112.33800206 -63.84004868 109.58699594 -63.78125 106.8359375 C-63.73805283 104.97069329 -63.69443815 103.1054587 -63.65039062 101.24023438 C-63.54254684 96.66806492 -63.44338009 92.09582288 -63.34375 87.5234375 C-72.58375 87.5234375 -81.82375 87.5234375 -91.34375 87.5234375 C-91.32054687 90.90980469 -91.29734375 94.29617187 -91.2734375 97.78515625 C-91.25779102 101.10489529 -91.24567478 104.42463004 -91.23388672 107.74438477 C-91.22389712 110.03216422 -91.21030083 112.31993114 -91.19287109 114.60766602 C-90.91133366 152.54069504 -90.91133366 152.54069504 -101.19921875 163.5 C-110.22952785 170.81797504 -119.88426035 170.88388281 -131.09375 170.5859375 C-133.67167598 170.52589661 -136.2498284 170.4747509 -138.828125 170.43359375 C-140.52533691 170.38924194 -140.52533691 170.38924194 -142.25683594 170.34399414 C-146.41352905 170.58562412 -149.27188737 171.33673244 -152.09375 174.4609375 C-153.48981004 176.5928395 -153.48981004 176.5928395 -154.34375 179.5234375 C-156.32375 179.5234375 -158.30375 179.5234375 -160.34375 179.5234375 C-160.76430615 171.05000988 -160.09709945 164.9484634 -155.59375 157.7109375 C-150.09018137 152.36024577 -142.30029925 151.53009874 -135.015625 150.32617188 C-129.22251325 149.19809144 -125.22185351 147.0489031 -121.34375 142.5234375 C-116.83428999 134.02706871 -117.25424179 124.28015301 -119.96875 115.2734375 C-122.81419936 107.61877794 -126.86431225 101.26315637 -134.34375 97.5234375 C-138.04568491 96.27403447 -140.90967086 95.81422018 -144.4921875 97.5859375 C-145.8537152 98.47675116 -147.18789246 99.41145461 -148.484375 100.39453125 C-150.34375 101.5234375 -150.34375 101.5234375 -154.34375 101.5234375 C-155.00375 101.1934375 -155.66375 100.8634375 -156.34375 100.5234375 C-155.03334271 94.13520198 -151.13921366 89.7194682 -146.34375 85.5234375 C-140.724474 82.34925786 -134.56097256 81.04481294 -128.34375 79.5234375 C-128.24578125 78.20730469 -128.1478125 76.89117187 -128.046875 75.53515625 C-126.700291 59.08491026 -123.42938858 44.38178784 -110.87890625 32.62890625 C-98.48138878 22.33266293 -84.26922345 14.72282853 -70.15283203 7.07519531 C-68.33754158 6.07241536 -66.53967052 5.03712244 -64.76513672 3.96386719 C-63.98541504 3.49625977 -63.20569336 3.02865234 -62.40234375 2.546875 C-61.73388428 2.13099121 -61.0654248 1.71510742 -60.37670898 1.28662109 C-57.67273249 0.27153397 -56.07443216 0.69445554 -53.34375 1.5234375 C-45.41708883 6.92199411 -42.08560487 12.69221239 -40.15625 21.9609375 C-39.87772316 23.48038066 -39.60416335 25.00078534 -39.34375 26.5234375 C-38.38597656 25.79640625 -37.42820312 25.069375 -36.44140625 24.3203125 C-27.09417271 17.25297877 -17.64125614 10.35854515 -7.99023438 3.71044922 C-6.19866084 2.46493137 -6.19866084 2.46493137 -4.171875 0.55859375 C-2.34375 -0.4765625 -2.34375 -0.4765625 0 0 Z M-84.9765625 25.1484375 C-91.39875709 32.53203847 -91.49694852 40.7603534 -91.44140625 50.078125 C-91.4399913 50.97967316 -91.43857635 51.88122131 -91.43711853 52.81008911 C-91.4315474 55.6729065 -91.41900026 58.53564398 -91.40625 61.3984375 C-91.40123127 63.34635303 -91.39666901 65.2942698 -91.39257812 67.2421875 C-91.38158742 72.00263468 -91.36434277 76.76302257 -91.34375 81.5234375 C-87.01662081 77.30035892 -87.01662081 77.30035892 -83.34375 72.5234375 C-83.34375 71.8634375 -83.34375 71.2034375 -83.34375 70.5234375 C-76.74375 70.5234375 -70.14375 70.5234375 -63.34375 70.5234375 C-63.27463524 64.83042953 -63.21497516 59.13889501 -63.17895508 53.44580078 C-63.16392925 51.51183115 -63.14350274 49.57789524 -63.11743164 47.64404297 C-63.08077409 44.85375614 -63.06396132 42.06392239 -63.05078125 39.2734375 C-63.03529739 38.41790283 -63.01981354 37.56236816 -63.00386047 36.6809082 C-63.00214162 30.45881138 -63.79358188 24.63814665 -67.87890625 19.6484375 C-75.19150923 14.26217239 -79.19284048 19.39238879 -84.9765625 25.1484375 Z M-37.94055176 31.71472168 C-42.32916599 37.37162442 -40.69198306 45.9542944 -40.21875 52.6484375 C-40.14841224 54.38516429 -40.0845533 56.1221662 -40.02734375 57.859375 C-39.87410423 62.08760099 -39.63338187 66.30245077 -39.34375 70.5234375 C-34.39375 70.5234375 -29.44375 70.5234375 -24.34375 70.5234375 C-24.34375 55.0134375 -24.34375 39.5034375 -24.34375 23.5234375 C-28.81254557 23.5234375 -34.80871734 28.80299655 -37.94055176 31.71472168 Z M-97.68359375 32.80859375 C-106.86583711 43.02355885 -105.48674842 56.97568392 -105.57354546 69.97958374 C-105.59018972 72.38595629 -105.61343005 74.79218698 -105.63844299 77.19848633 C-105.70859914 84.03296648 -105.76926049 90.86750082 -105.82055664 97.70214844 C-105.85253952 101.90239765 -105.8938482 106.10247399 -105.94075203 110.30258179 C-105.95663946 111.89078646 -105.96902117 113.47903061 -105.97765923 115.06729126 C-106.10346847 137.85637981 -106.10346847 137.85637981 -112.34375 146.5234375 C-114.26999988 148.07199132 -116.20669943 149.26063489 -118.34375 150.5234375 C-118.34375 150.8534375 -118.34375 151.1834375 -118.34375 151.5234375 C-111.46321489 152.02182636 -106.85341219 151.90867883 -101.34375 147.5234375 C-97.45848039 140.52995221 -97.19454842 133.47564759 -97.15429688 125.67919922 C-97.14600357 124.81002365 -97.13771027 123.94084808 -97.12916565 123.04533386 C-97.11182198 121.16457775 -97.09663989 119.28380072 -97.08338928 117.40301132 C-97.06224235 114.41674144 -97.03522541 111.43057454 -97.00671387 108.44436646 C-96.94715825 102.0957639 -96.89500222 95.74711176 -96.84375 89.3984375 C-96.78427448 82.05787679 -96.72169338 74.71736605 -96.65187073 67.3768959 C-96.62555624 64.45244229 -96.60458075 61.52798291 -96.5838623 58.60348511 C-96.50661043 49.53533323 -96.34038524 40.54863655 -95.34375 31.5234375 C-96.53289608 31.40806664 -96.53289608 31.40806664 -97.68359375 32.80859375 Z M-39.34375 87.5234375 C-39.39338288 93.09186521 -39.42957963 98.66016261 -39.45361328 104.22875977 C-39.46363815 106.12103521 -39.47726155 108.01329528 -39.49462891 109.90551758 C-39.51903222 112.633665 -39.53026845 115.36160665 -39.5390625 118.08984375 C-39.54938507 118.92866592 -39.55970764 119.7674881 -39.57034302 120.63172913 C-39.57141108 126.29015885 -39.4922913 132.06796173 -35.59375 136.5234375 C-32.47458635 137.90973246 -30.58994205 137.42132041 -27.34375 136.5234375 C-26.35375 135.8634375 -25.36375 135.2034375 -24.34375 134.5234375 C-23.90665945 132.42843993 -23.90665945 132.42843993 -24.00317383 129.98193359 C-24.00351372 128.57069717 -24.00351372 128.57069717 -24.00386047 127.13095093 C-24.01934433 126.11320587 -24.03482819 125.09546082 -24.05078125 124.046875 C-24.05502609 123.00649078 -24.05927094 121.96610657 -24.06364441 120.89419556 C-24.08047518 117.56201603 -24.11813578 114.23043509 -24.15625 110.8984375 C-24.17129113 108.64323788 -24.18498053 106.38802881 -24.19726562 104.1328125 C-24.23039316 98.59612253 -24.2822059 93.05988159 -24.34375 87.5234375 C-29.29375 87.5234375 -34.24375 87.5234375 -39.34375 87.5234375 Z " fill="#FFFFFF" transform="translate(604.34375,3.4765625)"/>
<path d="M0 0 C1.65 0.33 3.3 0.66 5 1 C3.58107693 12.3302066 0.25816849 19.86733236 -8.59375 27.2734375 C-19.19453951 34.87984816 -28.6470781 34 -42 34 C-42 69.31 -42 104.62 -42 141 C-22.03906391 133.32271689 -11.33055063 124.33065309 0 107 C1.65 107.33 3.3 107.66 5 108 C0.95452061 122.96827375 -5.19012103 133.17456724 -16 144 C-16.65871094 144.6703125 -17.31742188 145.340625 -17.99609375 146.03125 C-33.17783552 160.3967691 -52.40705129 164.45775231 -72.65234375 164.21484375 C-88.03908743 163.77862862 -101.96043053 158.54662491 -114 149 C-114.83402344 148.34257812 -115.66804688 147.68515625 -116.52734375 147.0078125 C-128.75544818 136.72037796 -136.25416875 123.72559216 -139 108 C-140.51450151 84.75928585 -136.21178464 64.18990755 -121 46 C-114.92058052 39.20163096 -108.5693746 33.24543634 -100.86328125 28.3046875 C-98.86426266 27.12532485 -98.86426266 27.12532485 -98 25 C-112.69419928 25.40647854 -126.14627427 27.48371209 -137.15234375 38.0703125 C-141.69575242 42.92676795 -145.07020286 48.04180678 -148 54 C-149.65 53.67 -151.3 53.34 -153 53 C-150.33594351 38.91855854 -144.17756247 28.0316476 -134 18 C-133.42507813 17.41476563 -132.85015625 16.82953125 -132.2578125 16.2265625 C-121.59729955 6.17813642 -105.98884403 3.71281832 -91.84375 3.88647461 C-87.19431833 4.07208465 -82.61326652 4.59628301 -78 5.1875 C-76.95763184 5.31552002 -75.91526367 5.44354004 -74.84130859 5.57543945 C-68.20770109 6.40859296 -61.59079476 7.33968904 -54.9765625 8.3125 C-54.20310486 8.42564041 -53.42964722 8.53878082 -52.63275146 8.65534973 C-48.80148174 9.21662283 -44.97196134 9.78688491 -41.14453125 10.3737793 C-23.39384458 13.36712108 -23.39384458 13.36712108 -6.95703125 7.5703125 C-4.10194459 5.2038283 -2.07198018 3.10797027 0 0 Z M-100 35 C-110.30351226 47.21590658 -116.96361716 61.93606593 -118 78 C-118.09474609 79.28003906 -118.09474609 79.28003906 -118.19140625 80.5859375 C-118.89988908 97.63523395 -112.45733765 113.44401353 -101 126 C-99.69316333 127.03438662 -98.36622686 128.04543102 -97 129 C-93.17295754 127.72431918 -91.3912036 125.23852612 -89.05078125 122.14453125 C-86.39970824 116.73397704 -86.8592016 110.22009636 -86.88647461 104.31079102 C-86.88632858 103.47096176 -86.88618256 102.63113251 -86.8860321 101.76585388 C-86.88672436 99.01184433 -86.89448437 96.25790387 -86.90234375 93.50390625 C-86.90421037 91.58577003 -86.90563312 89.66763333 -86.90663147 87.74949646 C-86.9104374 82.71732247 -86.92025117 77.68517765 -86.93133545 72.65301514 C-86.94159102 67.51151931 -86.94613796 62.37001874 -86.95117188 57.22851562 C-86.96187525 47.15233098 -86.97892845 37.07616792 -87 27 C-91.74103892 27 -96.51164565 32.01913978 -100 35 Z M-63 30 C-63.01458252 32.06813965 -63.02916504 34.1362793 -63.04418945 36.26708984 C-63.09473054 43.13236629 -63.16135891 49.99742055 -63.23571491 56.86247826 C-63.28027063 61.02109175 -63.31955846 65.1796106 -63.34643555 69.33837891 C-63.37261736 73.35861367 -63.41312235 77.37848133 -63.46318626 81.39848709 C-63.47975512 82.9252729 -63.49133111 84.45212205 -63.49761391 85.97898483 C-63.55332592 98.28382778 -64.29911591 108.68514224 -73 118 C-78.43310965 123.26332498 -84.1249844 128.23647384 -90 133 C-82.93465114 140.83187256 -72.09942923 142.969446 -62 144 C-57.38 143.67 -52.76 143.34 -48 143 C-48 106.7 -48 70.4 -48 33 C-52.95 32.01 -57.9 31.02 -63 30 Z " fill="#FFFFFF" transform="translate(1329,0)"/>
<path d="M0 0 C1.98 0.495 1.98 0.495 4 1 C3.76856006 10.88879763 1.05226433 18.45557923 -6.1875 25.375 C-17.41621357 34.66967093 -28.47829069 34 -43 34 C-42.67 69.31 -42.34 104.62 -42 141 C-32.8021281 137.46235696 -26.39326449 134.86362356 -19 129 C-18.31421875 128.48953125 -17.6284375 127.9790625 -16.921875 127.453125 C-10.26536177 122.15936251 -4.80150432 114.60300865 -1 107 C0.65 107 2.3 107 4 107 C2.92044226 122.83351355 -7.48896235 136.86263602 -19 147 C-36.19933289 161.23690599 -56.14603174 165.49536276 -78 164 C-97.30038481 161.93114824 -114.82334419 151.9796006 -127 137 C-139.10119778 120.24119835 -141.88886972 101.73432523 -138.7578125 81.625 C-135.88577698 67.88660329 -129.82601073 56.71043132 -121 46 C-120.50113281 45.35417969 -120.00226563 44.70835938 -119.48828125 44.04296875 C-115.72033633 39.38286559 -111.36835403 35.70125079 -106.6875 32 C-106.06415771 31.5064502 -105.44081543 31.01290039 -104.79858398 30.50439453 C-100.25899751 27 -100.25899751 27 -98 27 C-98 26.34 -98 25.68 -98 25 C-112.31820028 25.36760463 -125.99987987 26.78963209 -137 37 C-141.70892241 42.5413489 -145.58279241 48.59273578 -149 55 C-150.32 54.34 -151.64 53.68 -153 53 C-152.11421948 40.00855244 -144.36571617 26.35154991 -134.9375 17.5546875 C-120.06849457 5.62350975 -102.29358553 2.53708651 -83.6875 4.48046875 C-81.7907377 4.70854877 -79.8949258 4.94463391 -78 5.1875 C-76.95835693 5.31552002 -75.91671387 5.44354004 -74.84350586 5.57543945 C-68.1978367 6.41053004 -61.5683005 7.34172426 -54.94140625 8.3125 C-53.77766983 8.48221062 -53.77766983 8.48221062 -52.59042358 8.65534973 C-48.74408946 9.21727382 -44.89938875 9.78782648 -41.05664062 10.3737793 C-28.56267471 12.2471479 -18.05200978 13.55774139 -6.6875 7.125 C-3.97424634 4.97963664 -2.02002301 2.79695494 0 0 Z M-101.00390625 35.78515625 C-113.66698638 49.1533731 -118.65743757 67.2165219 -118.40283203 85.19848633 C-117.7769222 102.4605136 -110.35771557 117.02487624 -98 129 C-93.78771439 127.43989422 -91.65453155 124.5154607 -89 121 C-85.5377707 110.6133121 -86.86847681 98.18157945 -86.90234375 87.328125 C-86.9042129 85.5516565 -86.90563445 83.77518747 -86.90663147 81.99871826 C-86.91041756 77.36281873 -86.92021365 72.72695141 -86.93133545 68.09106445 C-86.94163441 63.34456823 -86.94614713 58.59806672 -86.95117188 53.8515625 C-86.96184011 44.56769432 -86.97886854 35.28384986 -87 26 C-91.36573217 26 -97.85531487 32.98027075 -101.00390625 35.78515625 Z M-63 30 C-63.01458252 31.96678711 -63.02916504 33.93357422 -63.04418945 35.95996094 C-63.09610539 42.50192571 -63.16146032 49.04365172 -63.23571491 55.58539963 C-63.2801976 59.54665797 -63.3195004 63.50781868 -63.34643555 67.46923828 C-63.37269166 71.30145787 -63.41324587 75.13329715 -63.46318626 78.96527863 C-63.47970584 80.41784131 -63.49131194 81.87046954 -63.49761391 83.32311249 C-63.57500244 99.54124213 -65.90929788 110.24290298 -77.62817383 121.86645508 C-81.8132409 125.95113074 -86.26642482 129.57546289 -91 133 C-83.81518249 140.73411548 -71.21772673 143.62349061 -61.0390625 144.08984375 C-56.49332309 144.16821857 -52.61926075 143.65989439 -48 143 C-48 106.7 -48 70.4 -48 33 C-52.95 32.01 -57.9 31.02 -63 30 Z " fill="#FFFFFF" transform="translate(153,0)"/>
<path d="M0 0 C5.83572547 2.81895213 10.01966336 6.14209695 13 12 C13.90903861 16.30894571 14.50673371 20.62550689 15 25 C15.88300781 24.23816406 16.76601562 23.47632812 17.67578125 22.69140625 C38.90343162 4.41138035 38.90343162 4.41138035 46 0 C54.93749389 7.32134575 59.83488478 13.88349775 63 25 C63.66644531 24.38253906 64.33289062 23.76507813 65.01953125 23.12890625 C73.97824606 14.89691236 83.25788679 7.30658491 93 0 C97.95 5.28 102.9 10.56 108 16 C111.48763093 14.25618453 114.03368051 12.47193291 117 10 C118.98 10.99 118.98 10.99 121 12 C119.17032883 15.88915611 116.79952184 19.26914241 114.33984375 22.78125 C111.84702621 26.9092977 111.8704678 30.70019611 111.85473633 35.46508789 C111.84835648 36.77647232 111.84197662 38.08785675 111.83540344 39.4389801 C111.83387507 40.86687178 111.83276095 42.29476394 111.83203125 43.72265625 C111.82881723 45.18948906 111.82545304 46.65632155 111.82194519 48.12315369 C111.81596398 51.19384505 111.81410437 54.2645083 111.81469727 57.33520508 C111.81479909 61.27183086 111.80112161 65.20827711 111.78392506 69.14486027 C111.77281624 72.17228527 111.77077767 75.19966661 111.77130699 78.22710991 C111.77012616 79.67879292 111.76569859 81.13047703 111.75797462 82.58213997 C111.7481934 84.60950529 111.75231219 86.63692333 111.75708008 88.66430664 C111.75565506 89.8180629 111.75423004 90.97181915 111.75276184 92.16053772 C111.78862502 95.20340769 111.78862502 95.20340769 114 98 C117.02419525 97.41196203 120.01758453 96.77321882 123 96 C123.66 97.65 124.32 99.3 125 101 C117.78816969 107.1640528 110.56693908 113.27102545 103 119 C96.55053374 115.77526687 92.01483236 111.93372032 88.6875 105.4375 C87.23338125 100.28198808 86.87861362 95.34599177 86.88989258 90.00415039 C86.88935037 88.61182148 86.88876342 87.21949258 86.88813782 85.8271637 C86.88956598 85.0974341 86.89099415 84.36770451 86.89246559 83.61586189 C86.8960126 79.7210529 86.87016316 75.82638351 86.84960938 71.93164062 C86.82528853 66.98954101 86.8095919 62.04786409 86.82495117 57.10571289 C86.83663806 53.09782507 86.8191572 49.09097575 86.78250694 45.08325005 C86.77391942 43.56233387 86.77592929 42.04131759 86.789011 40.52043343 C87.12609295 30.87335317 87.12609295 30.87335317 82.9519043 22.51342773 C81.97777588 21.68399658 81.00364746 20.85456543 80 20 C76.31403684 21.74867805 73.45562075 23.94812854 70.3125 26.5625 C69.33925781 27.36816406 68.36601563 28.17382812 67.36328125 29.00390625 C65.63895991 30.4555263 65.63895991 30.4555263 64 32 C63.86925909 33.92556755 63.80865942 35.85593037 63.77539062 37.78564453 C63.75287231 39.02428253 63.730354 40.26292053 63.70715332 41.53909302 C63.63155934 47.22837796 63.57841291 52.91777361 63.54003906 58.60742188 C63.51780467 61.6089836 63.47610778 64.60929376 63.41699219 67.61035156 C63.34570805 71.236181 63.30917847 74.86083722 63.29692078 78.48733139 C63.28654819 79.86606994 63.26418944 81.24477504 63.22932434 82.62311172 C62.86829396 90.40612968 62.86829396 90.40612968 65.60717773 97.44866943 C67.31966613 99.17480466 68.99221095 100.63485154 71 102 C69.61073045 106.16780866 66.62342646 107.92554297 63.25 110.5 C62.62867188 110.98597656 62.00734375 111.47195312 61.3671875 111.97265625 C58.02846909 114.55769772 54.68479703 116.9185116 51 119 C49.71416016 118.00419922 49.71416016 118.00419922 48.40234375 116.98828125 C42.66959874 112.5578618 36.94349693 108.14662576 31 104 C32.48997637 101.31804253 33.7383316 99.22550542 36.07702637 97.21002197 C38.59740217 94.31342172 38.50643254 92.69375078 38.51757812 88.88964844 C38.53018677 87.65446472 38.54279541 86.41928101 38.55578613 85.14666748 C38.54862309 83.80089753 38.54041831 82.45513278 38.53125 81.109375 C38.53394682 79.72177865 38.53783083 78.33418414 38.54284668 76.94659424 C38.54874079 74.03794365 38.54018774 71.12978475 38.52148438 68.22119141 C38.49877887 64.51117296 38.51176327 60.80231745 38.53577423 57.09234238 C38.55030809 54.22505114 38.54559043 51.35803018 38.53526306 48.49073029 C38.53261219 47.12412628 38.53580729 45.75749698 38.54518127 44.39092255 C38.59070241 35.88407082 38.55971543 28.75703864 32.36535645 22.2946167 C31.689505 21.65378143 31.689505 21.65378143 31 21 C24.31792894 23.29152623 19.32391875 27.46439624 15 33 C13.5071816 37.71997894 13.54347416 42.11871518 13.6796875 47.0390625 C13.68244377 48.37323772 13.68132083 49.70742595 13.67654419 51.04159546 C13.67836554 53.82164932 13.71744553 56.59775282 13.78564453 59.37695312 C13.87088906 62.91980152 13.87611883 66.4571964 13.85514641 70.00083351 C13.84299087 73.41003865 13.88785775 76.81758085 13.9296875 80.2265625 C13.9280661 81.48820221 13.9264447 82.74984192 13.92477417 84.04971313 C14.14182506 91.42450602 15.12124856 95.53262765 20.50637817 100.73422241 C20.99927338 101.15192902 21.49216858 101.56963562 22 102 C20.58990557 104.95497642 19.34750243 106.84657719 16.84765625 108.98046875 C16.23599609 109.50447266 15.62433594 110.02847656 14.99414062 110.56835938 C14.35669922 111.10267578 13.71925781 111.63699219 13.0625 112.1875 C12.42892578 112.73341797 11.79535156 113.27933594 11.14257812 113.84179688 C6.39920281 117.8669324 6.39920281 117.8669324 3 119 C0.59452592 117.36846106 -1.58407846 115.72307315 -3.8125 113.875 C-4.41642578 113.38773437 -5.02035156 112.90046875 -5.64257812 112.3984375 C-9.46206439 109.30666821 -13.23023005 106.15205879 -17 103 C-15.84398457 100.16250758 -14.80974676 98.83379866 -12.45542908 96.77711487 C-9.41616944 93.33968179 -9.38125862 91.78123378 -9.40063477 87.25366211 C-9.39669205 86.59611435 -9.39274933 85.93856659 -9.38868713 85.26109314 C-9.38200289 83.0990548 -9.41107688 80.9391542 -9.44140625 78.77734375 C-9.44565932 77.26949981 -9.44798526 75.7616493 -9.44847107 74.25379944 C-9.45462761 71.09882788 -9.47728438 67.94456877 -9.51293945 64.78979492 C-9.55825035 60.74897945 -9.57296804 56.70880787 -9.57667637 52.6677618 C-9.58110803 49.55617442 -9.5964166 46.44472169 -9.6155529 43.33319283 C-9.62442149 41.84327868 -9.63115809 40.35335025 -9.63571358 38.86341667 C-9.6447723 36.78101415 -9.66717514 34.69918886 -9.69360352 32.61694336 C-9.70424332 31.43289413 -9.71488312 30.24884491 -9.72584534 29.02891541 C-9.98819138 26.13046394 -10.48601432 24.44874189 -12 22 C-15.02419525 22.58803797 -18.01758453 23.22678118 -21 24 C-21.66 22.35 -22.32 20.7 -23 19 C-15.42784342 12.54349031 -7.818133 6.15920636 0 0 Z " fill="#FFFFFF" transform="translate(1417,46)"/>
<path d="M0 0 C0.495 1.98 0.495 1.98 1 4 C0.38511719 4.43570312 -0.22976562 4.87140625 -0.86328125 5.3203125 C-7.36684711 10.11241366 -10.62550387 13.90100667 -12 22 C-12.08170868 23.59511805 -12.1179254 25.19307985 -12.11352539 26.7902832 C-12.11344986 27.71086014 -12.11337433 28.63143707 -12.11329651 29.57991028 C-12.10813522 30.5602977 -12.10297394 31.54068512 -12.09765625 32.55078125 C-12.09553383 34.07169624 -12.09553383 34.07169624 -12.09336853 35.62333679 C-12.08778328 38.85308821 -12.07523345 42.08276962 -12.0625 45.3125 C-12.0574831 47.50585837 -12.05292052 49.69921783 -12.04882812 51.89257812 C-12.03781868 57.26174253 -12.0210952 62.63086626 -12 68 C-11.0524585 67.18523193 -10.10491699 66.37046387 -9.12866211 65.53100586 C-7.86575255 64.44641702 -6.60281142 63.36186493 -5.33984375 62.27734375 C-4.71766968 61.7421814 -4.09549561 61.20701904 -3.45446777 60.65563965 C3.7904903 54.43718925 11.15920347 48.45446715 19 43 C26.04792889 47.72247012 32.66809229 53.52033561 35 62 C36.20251257 69.40497496 36.17885726 76.76452074 36.203125 84.25390625 C36.20736607 85.27394399 36.20736607 85.27394399 36.21169281 86.31458855 C36.22661445 89.9174932 36.23588673 93.52035857 36.24023438 97.12329102 C36.24569176 100.79863655 36.26968172 104.47360656 36.29820633 108.14883518 C36.31705887 111.01546697 36.32205026 113.88201262 36.32357025 116.7487011 C36.3279754 118.7484915 36.34650931 120.74823536 36.36553955 122.74794006 C36.32820572 138.35241636 33.83941811 155.10012121 22.6875 166.9375 C21.48864193 167.99376262 20.25762198 169.01443502 19 170 C18.30648437 170.556875 17.61296875 171.11375 16.8984375 171.6875 C6.89376981 179.18263566 -4.7815159 184.18732151 -16.25 189 C-16.96486572 189.30292969 -17.67973145 189.60585937 -18.41625977 189.91796875 C-21.8828802 191.33403521 -24.19810986 192 -28 192 C-28.495 190.02 -28.495 190.02 -29 188 C-27.62636224 187.16442311 -26.25094992 186.33176394 -24.875 185.5 C-23.96492188 184.94957031 -23.05484375 184.39914063 -22.1171875 183.83203125 C-19.37240954 182.21887227 -16.59361014 180.69128641 -13.79492188 179.17456055 C-3.76094161 173.65669028 4.83686521 168.11538747 8.37890625 156.67578125 C9.64711713 151.21210544 10.15509695 145.96174691 10.17700195 140.36157227 C10.18357315 139.62091522 10.19014435 138.88025818 10.19691467 138.11715698 C10.21651126 135.68357216 10.22827658 133.25004848 10.23828125 130.81640625 C10.24235678 129.98113844 10.2464323 129.14587063 10.25063133 128.28529167 C10.27142904 123.86817554 10.28576058 119.45108993 10.29516602 115.03393555 C10.30624676 110.48330623 10.34068364 105.93316365 10.38033772 101.38270664 C10.40652022 97.87130343 10.41485904 94.36001633 10.41844749 90.84852409 C10.42330537 89.17125073 10.43489656 87.49398227 10.45348549 85.81680489 C10.47792396 83.46675276 10.47690454 81.11796346 10.4699707 78.76782227 C10.48278076 78.0824086 10.49559082 77.39699493 10.50878906 76.69081116 C10.45168111 71.35455178 8.84195638 68.34740304 6 64 C1.77671178 64 -0.36323523 66.38844393 -3.5 68.9375 C-9.62675919 73.8755864 -9.62675919 73.8755864 -13 75 C-13.00832248 83.0937135 -12.98432888 91.18642652 -12.9197216 99.27985477 C-12.89071883 103.03854397 -12.87261259 106.79661197 -12.87988281 110.55541992 C-12.88649794 114.18690378 -12.86387069 117.81716253 -12.82144547 121.44839287 C-12.81035247 122.829733 -12.80957983 124.21119796 -12.81957626 125.59254646 C-13.07966122 134.59756281 -13.07966122 134.59756281 -8.94970703 142.21655273 C-8.40009308 142.70091293 -7.85047913 143.18527313 -7.28421021 143.68431091 C-6 145 -6 145 -6 148 C-8.15231753 149.7881251 -10.25955133 151.36720166 -12.5625 152.9375 C-13.17158203 153.36740234 -13.78066406 153.79730469 -14.40820312 154.24023438 C-18.47946647 157.07934818 -22.66031745 159.5927887 -27 162 C-27.61746094 161.50371094 -28.23492187 161.00742188 -28.87109375 160.49609375 C-34.54241451 155.94695214 -40.24766967 151.44624566 -46 147 C-45.71942806 145.12933731 -45.71942806 145.12933731 -45 143 C-43.40014744 141.8984642 -43.40014744 141.8984642 -41.489151 140.93060303 C-39.11604459 139.3278496 -38.1560191 138.54002253 -37.35250664 135.75885773 C-37.1229589 132.85568022 -37.1115526 130.0221676 -37.17358398 127.11035156 C-37.16934921 126.01217102 -37.16511444 124.91399048 -37.16075134 123.78253174 C-37.15543055 120.15096534 -37.20017812 116.52187651 -37.24609375 112.890625 C-37.25407729 110.3634309 -37.25925084 107.83622649 -37.26173401 105.309021 C-37.27398188 100.00934016 -37.30803888 94.71050061 -37.36206055 89.41113281 C-37.43106845 82.6311514 -37.45895757 75.85167705 -37.47305202 69.07138443 C-37.48670883 62.59439278 -37.52263109 56.11752461 -37.55859375 49.640625 C-37.56650846 47.79449993 -37.56650846 47.79449993 -37.57458305 45.91107941 C-37.59313063 42.40961318 -37.62531805 38.90854577 -37.66186523 35.40722656 C-37.665672 34.38145508 -37.66947876 33.35568359 -37.67340088 32.29882812 C-37.80306778 20.38318149 -37.80306778 20.38318149 -43.625 10.4375 C-44.25664062 9.77621094 -44.88828125 9.11492188 -45.5390625 8.43359375 C-46.02117187 7.96050781 -46.50328125 7.48742187 -47 7 C-46.34 5.35 -45.68 3.7 -45 2 C-39.02381952 4.77549884 -33.86040092 7.52331494 -29 12 C-26.08784838 10.63796918 -23.64095766 9.03533523 -21.0625 7.125 C-15.01549714 3.01987992 -7.37735858 0 0 0 Z " fill="#FFFFFF" transform="translate(211,3)"/>
<path d="M0 0 C9.61178237 6.21151395 12.92395323 11.9805148 16 23 C16.9178125 22.07058594 17.835625 21.14117187 18.78125 20.18359375 C34.47747659 4.34834894 34.47747659 4.34834894 41 0 C61.36276192 15.01527103 61.36276192 15.01527103 63.52783203 28.21899414 C64.31256355 34.71226009 64.12296602 41.25186638 64.09765625 47.78125 C64.09578803 49.20471141 64.09436603 50.62817346 64.09336853 52.05163574 C64.08957518 55.77353737 64.07977257 59.49539913 64.06866455 63.21728516 C64.05838152 67.02505962 64.05385623 70.83284061 64.04882812 74.640625 C64.03814702 82.09376805 64.02110946 89.54687841 64 97 C62.92983643 97.5873291 61.85967285 98.1746582 60.75708008 98.77978516 C59.32358446 99.57428089 57.89024308 100.36905495 56.45703125 101.1640625 C55.755177 101.54828369 55.05332275 101.93250488 54.3302002 102.32836914 C46.26850132 106.81613344 38.36210473 112.26876292 32 119 C28.20950293 117.57250019 24.72877544 115.83763458 21.1875 113.875 C20.21167969 113.33617187 19.23585938 112.79734375 18.23046875 112.2421875 C17.49441406 111.83226562 16.75835938 111.42234375 16 111 C14.92252944 126.06019703 14.92252944 126.06019703 20.98046875 139.16015625 C22.92394338 140.89036464 24.88676618 142.48409355 27 144 C26.67 145.65 26.34 147.3 26 149 C20.37195204 148.52439031 16.60835902 147.04330898 11.8125 144.125 C11.20986328 143.77308594 10.60722656 143.42117187 9.98632812 143.05859375 C7.44118121 141.55553223 5.09795732 140.08727436 2.88671875 138.1171875 C1.014665 136.70855096 1.014665 136.70855096 -1.29296875 137.5859375 C-2.63294922 138.28589844 -2.63294922 138.28589844 -4 139 C-5.17175781 139.56976563 -6.34351563 140.13953125 -7.55078125 140.7265625 C-8.80572317 141.35731865 -10.05961397 141.99017 -11.3125 142.625 C-11.95767578 142.94984375 -12.60285156 143.2746875 -13.26757812 143.609375 C-14.84597541 144.40441956 -16.42311694 145.20195634 -18 146 C-18.66 145.34 -19.32 144.68 -20 144 C-19.8125 141.9375 -19.8125 141.9375 -19 140 C-18.01 139.67 -17.02 139.34 -16 139 C-14.93283296 137.20067421 -14.93283296 137.20067421 -14 135 C-13.484375 134.2575 -12.96875 133.515 -12.4375 132.75 C-9.19343437 126.5439614 -9.74303181 118.39199631 -9.4375 111.5 C-9.39431641 110.5821875 -9.35113281 109.664375 -9.30664062 108.71875 C-9.20166614 106.47929438 -9.10044292 104.23966344 -9 102 C-15.93 101.505 -15.93 101.505 -23 101 C-23 98.03 -23 95.06 -23 92 C-18.15718846 90.84350769 -13.97969773 89.94197002 -9 90 C-9.08474518 82.33225 -9.17975786 74.66468381 -9.28752708 66.99722385 C-9.33726504 63.436095 -9.383595 59.87499262 -9.421875 56.3137207 C-9.46613755 52.21026779 -9.52569303 48.10715589 -9.5859375 44.00390625 C-9.59748871 42.73793106 -9.60903992 41.47195587 -9.62094116 40.1676178 C-9.73163202 33.47946064 -10.26229603 27.46608795 -12 21 C-14.97 21.33 -17.94 21.66 -21 22 C-21.33 20.68 -21.66 19.36 -22 18 C-15.00605447 11.53014857 -7.59760491 5.73049644 0 0 Z M19.19989014 26.71234131 C10.96946887 35.98956004 13.80300763 50.75892259 14.25 62.25 C14.31711581 64.94119823 14.36582571 67.63262442 14.4140625 70.32421875 C14.54561947 76.88566144 14.74580475 83.44222362 15 90 C15.91313965 90.30413818 16.8262793 90.60827637 17.76708984 90.92163086 C20.08800439 91.69579485 22.40768706 92.47365571 24.7265625 93.25390625 C26.02603612 93.69012068 27.32551536 94.1263184 28.625 94.5625 C29.27984375 94.78357422 29.9346875 95.00464844 30.609375 95.23242188 C33.71993108 96.27452113 36.81165281 97.23149748 40 98 C40.04653478 90.20204789 40.0819759 82.4041289 40.10362434 74.60607243 C40.11401947 70.98432031 40.12809965 67.36266387 40.15087891 63.7409668 C40.17276092 60.23963429 40.18460067 56.73839326 40.18975449 53.2369976 C40.1951966 51.26466222 40.21078449 49.29236315 40.22659302 47.32008362 C40.50777708 35.8433235 40.50777708 35.8433235 36.16015625 25.58984375 C35.46792969 25.04457031 34.77570312 24.49929687 34.0625 23.9375 C33.37285156 23.36902344 32.68320312 22.80054687 31.97265625 22.21484375 C26.87239283 19.07388945 22.88283595 23.29353704 19.19989014 26.71234131 Z " fill="#FFFFFF" transform="translate(946,46)"/>
<path d="M0 0 C2.2109375 1.16015625 2.2109375 1.16015625 4 3 C6.21294138 12.19117372 2.95452927 20.38356176 -1.78417969 28.13476562 C-4.93106583 32.96251867 -8.44234855 37.51883556 -11.9765625 42.06640625 C-16.22854345 47.5419496 -20.11031486 53.26369666 -24 59 C-22.35 59.66 -20.7 60.32 -19 61 C-13.06 64.3 -7.12 67.6 -1 71 C-1 86.51 -1 102.02 -1 118 C-5.29 119.98 -9.58 121.96 -14 124 C-20.26608591 127.19970344 -25.5152542 129.89336117 -30.26953125 135.09375 C-32 136 -32 136 -34.81640625 135.31640625 C-35.86699219 134.88199219 -36.91757813 134.44757813 -38 134 C-39.01320313 133.58621094 -40.02640625 133.17242187 -41.0703125 132.74609375 C-43.11211419 131.87140888 -45.1537802 130.99640722 -47.1953125 130.12109375 C-55.9738968 126.61210532 -63.81020218 127.42427635 -72.5234375 130.8359375 C-74.69996641 131.85897475 -76.46398151 132.93438607 -78.375 134.375 C-79.674375 135.179375 -79.674375 135.179375 -81 136 C-83.875 135.25 -83.875 135.25 -86 134 C-84.37289741 128.91904775 -81.32232977 125.04779184 -78.1875 120.8125 C-77.61942627 120.03455078 -77.05135254 119.25660156 -76.46606445 118.45507812 C-74.64879734 115.96653225 -72.82493469 113.48292716 -71 111 C-68.55638791 107.6710855 -66.1200479 104.3370045 -63.6875 101 C-63.11862061 100.22889893 -62.54974121 99.45779785 -61.96362305 98.66333008 C-61.44324463 97.94943115 -60.92286621 97.23553223 -60.38671875 96.5 C-59.92483154 95.8709375 -59.46294434 95.241875 -58.98706055 94.59375 C-57.82449018 93.0290567 -57.82449018 93.0290567 -58 91 C-64.6 87.37 -71.2 83.74 -78 80 C-78 66.14 -78 52.28 -78 38 C-73.05 35.69 -68.1 33.38 -63 31 C-61.02 29.68 -59.04 28.36 -57 27 C-56.2575 26.67 -55.515 26.34 -54.75 26 C-52.46420656 24.69383232 -52.05048351 23.38109596 -51 21 C-50.02418241 19.64886795 -49.02970259 18.31053056 -48 17 C-44.34229104 18.15506599 -40.8353244 19.49423136 -37.3125 21 C-27.89852655 24.79961579 -17.67381324 26.77514663 -8 23 C-7.13345127 19.78020634 -7.13345127 19.78020634 -7 16 C-8.30406884 13.98079663 -9.63823419 11.98075027 -11 10 C-11.41226709 6.52517741 -11.61972331 4.20071391 -10 1.0625 C-6.8298014 -0.62166801 -3.46172846 -0.67772803 0 0 Z M-54 37 C-54.24843165 41.16218556 -54.42914913 45.32039169 -54.54931641 49.48779297 C-54.5994188 50.90261999 -54.66753362 52.31693378 -54.75439453 53.72998047 C-55.0269206 58.27956274 -55.11309086 62.5384157 -54 67 C-51.02817691 70.0101692 -47.96100065 71.58797249 -44 73 C-39.84598815 69.12392385 -36.71696383 64.96202537 -33.5625 60.25 C-33.08385498 59.54423828 -32.60520996 58.83847656 -32.11206055 58.11132812 C-30.73538586 56.07817168 -29.3663215 54.04012389 -28 52 C-27.32453125 50.99453125 -26.6490625 49.9890625 -25.953125 48.953125 C-24.62882428 46.97298011 -23.30988469 44.98969826 -22 43 C-22.58265625 43.02320313 -23.1653125 43.04640625 -23.765625 43.0703125 C-34.73890756 43.31186274 -43.93416033 41.23222804 -54 37 Z M-38 78 C-43.58844223 84.10647199 -48.20607349 91.06366996 -52.875 97.875 C-53.44637695 98.70749268 -54.01775391 99.53998535 -54.60644531 100.39770508 C-56.95977736 103.86061562 -59.19656791 107.21332461 -61 111 C-60.15308594 110.84273437 -59.30617188 110.68546875 -58.43359375 110.5234375 C-45.91974863 108.61575235 -36.56879504 110.54773279 -25 115 C-24.7014245 110.85630791 -24.48487813 106.71840482 -24.34082031 102.56713867 C-24.28076061 101.15880329 -24.19906269 99.75120779 -24.09472656 98.34545898 C-23.76010932 93.71822735 -23.68847761 89.50787126 -25 85 C-28.23217924 81.96323029 -33.28434295 78 -38 78 Z " fill="#FFFFFF" transform="translate(1722,29)"/>
<path d="M0 0 C11.73533421 4.966618 11.73533421 4.966618 23.9375 3.75 C25.94853188 2.55193845 27.92729116 1.29847256 29.875 0 C30.865 0.66 31.855 1.32 32.875 2 C32.26503007 4.85491078 31.36740853 7.08893581 29.9375 9.625 C25.32206116 18.75138054 25.57843136 28.56356442 25.609375 38.58203125 C25.60802446 39.96823698 25.6060807 41.35444224 25.60357666 42.74064636 C25.6006486 45.62589083 25.6048509 48.51101041 25.61425781 51.39624023 C25.62570496 55.08590167 25.61904525 58.77527373 25.60711288 62.46492481 C25.599877 65.3191495 25.60218921 68.1733058 25.60736847 71.02753258 C25.60869741 72.38824181 25.60708387 73.74895735 25.60240936 75.10965919 C25.59730993 77.00905863 25.60646505 78.90848005 25.61621094 80.80786133 C25.61780212 81.88578445 25.61939331 82.96370758 25.62103271 84.07429504 C25.885716 87.1234484 26.45821286 89.29206425 27.875 92 C30.27610217 93.08024658 30.27610217 93.08024658 32.875 93 C33.865 92.34 34.855 91.68 35.875 91 C36.865 91 37.855 91 38.875 91 C39.205 92.32 39.535 93.64 39.875 95 C32.11239308 101.71360599 24.2925201 108.11279656 15.875 114 C9.23907253 108.5756885 4.01398537 103.55594147 1.875 95 C1.82767061 93.33400549 1.81716448 91.66566288 1.875 90 C-8.22716651 97.87653295 -18.20445249 105.89607223 -28.125 114 C-37.26994336 109.51834089 -41.87215082 102.67279677 -46.265625 93.66015625 C-49.2698209 84.36080438 -47.5757408 73.83685828 -43.7421875 65.09765625 C-39.59482548 57.1535546 -34.72183923 50.06312357 -28.1796875 43.9140625 C-26.80150335 41.93564074 -26.80150335 41.93564074 -27.86206055 39.24560547 C-29.11493031 36.02587792 -30.56828868 33.15655266 -32.27734375 30.15625 C-32.88900391 29.07472656 -33.50066406 27.99320313 -34.13085938 26.87890625 C-34.76830078 25.76386719 -35.40574219 24.64882812 -36.0625 23.5 C-37.32282209 21.28193568 -38.58197527 19.06320669 -39.83984375 16.84375 C-40.67696899 15.37711914 -40.67696899 15.37711914 -41.53100586 13.88085938 C-43.14782116 10.95875483 -44.65234125 7.99697024 -46.125 5 C-45.24199219 4.97421875 -44.35898437 4.9484375 -43.44921875 4.921875 C-32.62929797 4.41051462 -23.70584819 2.54673453 -15.07421875 -4.2421875 C-10.43614581 -6.04536616 -4.29705121 -1.8246502 0 0 Z M-36.125 11 C-29.09925298 30.25165903 -29.09925298 30.25165903 -15.19213867 44.08251953 C-12.21152149 45.29874623 -9.24622835 46.21447928 -6.125 47 C-3.815 47.66 -1.505 48.32 0.875 49 C0.875 40.42 0.875 31.84 0.875 23 C-6.58703081 20.01518768 -13.95453404 17.27818561 -21.5625 14.75 C-22.63693359 14.38648438 -23.71136719 14.02296875 -24.81835938 13.6484375 C-25.84638672 13.30554688 -26.87441406 12.96265625 -27.93359375 12.609375 C-29.32276001 12.1448291 -29.32276001 12.1448291 -30.73999023 11.67089844 C-33.19339034 10.86460581 -33.19339034 10.86460581 -36.125 11 Z M-23.125 45 C-26.97043047 57.10280573 -30.18306728 69.39995838 -24.5625 81.5 C-21.77028467 86.43135881 -18.45680505 90.36025848 -14.125 94 C-10.63183117 92.44476633 -7.89631239 90.34563239 -4.9375 87.9375 C-4.05707031 87.22464844 -3.17664063 86.51179688 -2.26953125 85.77734375 C-1.19278168 84.88495567 -0.11387464 83.98887464 0.875 83 C0.96267112 80.92737924 0.98195873 78.85179706 0.97265625 76.77734375 C0.96782227 74.88725586 0.96782227 74.88725586 0.96289062 72.95898438 C0.95453403 71.61848891 0.94606907 70.27799412 0.9375 68.9375 C0.9324866 67.59310058 0.92792342 66.2486994 0.92382812 64.90429688 C0.91199488 61.60282059 0.89550971 58.30143197 0.875 55 C-7.00894917 51.26315728 -14.86200155 47.81504957 -23.125 45 Z " fill="#FFFFFF" transform="translate(876.125,51)"/>
<path d="M0 0 C3.42613644 3.30057123 6.37859842 6.6634515 9.1875 10.5 C10.34572266 12.06814453 10.34572266 12.06814453 11.52734375 13.66796875 C11.92937012 14.21243652 12.33139648 14.7569043 12.74560547 15.31787109 C14.87778397 18.1770984 17.06610393 20.9927084 19.25 23.8125 C22.59723204 28.14349715 25.86778211 32.51048769 29 37 C25.13321921 40.96969891 21.07352283 44.63509705 16.875 48.25 C16.21411377 48.82065186 15.55322754 49.39130371 14.87231445 49.97924805 C11.01239313 53.30090168 7.1247679 56.58292933 3.1875 59.8125 C2.32769531 60.53695312 1.46789062 61.26140625 0.58203125 62.0078125 C-2 64 -2 64 -4.86328125 65.5546875 C-8.15067539 67.49829535 -9.89782103 68.77349991 -12 72 C-13.50828321 79.19951974 -13.25863864 86.68260322 -13 94 C-12.10812988 94.27589966 -12.10812988 94.27589966 -11.19824219 94.55737305 C-5.99125265 96.22015814 -1.70627264 98.18863087 2.859375 101.20703125 C5.01493946 102.23595966 5.01493946 102.23595966 7.37890625 101.39453125 C10.47368127 99.7479818 13.30645216 97.87204931 16.1875 95.875 C21.77935943 92 21.77935943 92 24 92 C24.66 93.65 25.32 95.3 26 97 C21.5207427 99.97970302 17.03662464 102.95188763 12.54785156 105.91723633 C11.02175416 106.92690574 9.49700142 107.9386107 7.97363281 108.95239258 C5.78280994 110.40984678 3.58724394 111.85989458 1.390625 113.30859375 C0.7113092 113.76278183 0.03199341 114.21696991 -0.66790771 114.68492126 C-3.73378558 116.69749125 -6.35725204 118.41129503 -10 119 C-12.05078125 117.99609375 -12.05078125 117.99609375 -14.3125 116.4375 C-23.64304437 110.5111572 -34.36298041 106.85322408 -45 104 C-44.43489343 101.19194469 -44.18530882 100.17933111 -42.0625 98.125 C-38.17069111 94.11525751 -37.74957831 89.35036 -37.75708008 83.95043945 C-37.75400345 82.77935135 -37.75092682 81.60826324 -37.74775696 80.40168762 C-37.75494247 79.15151352 -37.76212799 77.90133942 -37.76953125 76.61328125 C-37.76998947 75.31931931 -37.77044769 74.02535736 -37.7709198 72.69218445 C-37.77247833 69.96294732 -37.78072185 67.23384253 -37.79418945 64.50463867 C-37.81122905 61.00754166 -37.81500197 57.51058906 -37.81424427 54.01345539 C-37.81458142 50.67171134 -37.82341635 47.33001464 -37.83203125 43.98828125 C-37.83314407 42.73203445 -37.8342569 41.47578766 -37.83540344 40.18147278 C-37.84178329 39.01984116 -37.84816315 37.85820953 -37.85473633 36.66137695 C-37.85854813 35.63800735 -37.86235992 34.61463776 -37.86628723 33.56025696 C-37.89236693 30.87903491 -37.89236693 30.87903491 -39 28 C-40.98 27.67 -42.96 27.34 -45 27 C-45.33 25.68 -45.66 24.36 -46 23 C-45.38817871 22.72961914 -44.77635742 22.45923828 -44.14599609 22.18066406 C-29.02387019 15.46284756 -14.40225951 8.14740455 0 0 Z M-13 18 C-13 32.85 -13 47.7 -13 63 C-6.9491257 58.51765849 -6.9491257 58.51765849 -1.15625 53.7890625 C-0.24746094 53.00595703 -0.24746094 53.00595703 0.6796875 52.20703125 C1.28039062 51.68496094 1.88109375 51.16289063 2.5 50.625 C3.13164063 50.07972656 3.76328125 49.53445312 4.4140625 48.97265625 C5.94470095 47.65074123 7.4726462 46.32570877 9 45 C5.34748512 40.09794056 1.6574761 35.22596548 -2.0625 30.375 C-2.4735498 29.83721924 -2.88459961 29.29943848 -3.30810547 28.74536133 C-6.12052285 25.0851898 -8.97787986 21.48827039 -12 18 C-12.33 18 -12.66 18 -13 18 Z " fill="#FFFFFF" transform="translate(706,46)"/>
<path d="M0 0 C4.04856004 3.83509051 7.33830388 7.94140412 10.625 12.4375 C13.75794591 16.6889332 16.90006973 20.91672153 20.2265625 25.01953125 C20.98912354 25.96324585 20.98912354 25.96324585 21.76708984 26.92602539 C22.73607716 28.11787659 23.71268488 29.30358335 24.69775391 30.48217773 C27.30238253 33.69815584 28 34.6969819 28 39 C26.12109375 40.90234375 26.12109375 40.90234375 23.4375 42.9375 C22.43589844 43.71996094 21.43429687 44.50242188 20.40234375 45.30859375 C19.85433105 45.73640137 19.30631836 46.16420898 18.74169922 46.60498047 C15.57766447 49.13922417 12.54785478 51.82822713 9.5 54.5 C-5.92917526 67.95278351 -5.92917526 67.95278351 -12 72 C-12.50843062 74.31753588 -12.50843062 74.31753588 -12.51171875 77.0078125 C-12.54716797 77.99394531 -12.58261719 78.98007813 -12.61914062 79.99609375 C-12.64169922 81.02863281 -12.66425781 82.06117188 -12.6875 83.125 C-12.72166016 84.16527344 -12.75582031 85.20554687 -12.79101562 86.27734375 C-12.87367058 88.85145507 -12.94276155 91.42521829 -13 94 C-12.10812988 94.27589966 -12.10812988 94.27589966 -11.19824219 94.55737305 C-5.99125265 96.22015814 -1.70627264 98.18863087 2.859375 101.20703125 C5.01493946 102.23595966 5.01493946 102.23595966 7.37890625 101.39453125 C10.47368127 99.7479818 13.30645216 97.87204931 16.1875 95.875 C21.77935943 92 21.77935943 92 24 92 C24.66 93.65 25.32 95.3 26 97 C21.5207427 99.97970302 17.03662464 102.95188763 12.54785156 105.91723633 C11.02175416 106.92690574 9.49700142 107.9386107 7.97363281 108.95239258 C5.78280994 110.40984678 3.58724394 111.85989458 1.390625 113.30859375 C0.7113092 113.76278183 0.03199341 114.21696991 -0.66790771 114.68492126 C-6.41840409 118.4597867 -6.41840409 118.4597867 -10 119 C-12.55859375 117.7421875 -12.55859375 117.7421875 -15.4375 115.875 C-24.66663905 110.23184798 -34.61693041 106.88288388 -45 104 C-44.22195321 100.14185044 -42.77250474 98.77250474 -40 96 C-38.13105645 92.22063145 -37.75136842 89.16363405 -37.75708008 84.97216797 C-37.75400345 83.78098358 -37.75092682 82.58979919 -37.74775696 81.36251831 C-37.75494247 80.08530914 -37.76212799 78.80809998 -37.76953125 77.4921875 C-37.76998947 76.17461456 -37.77044769 74.85704163 -37.7709198 73.49954224 C-37.77248014 70.71725148 -37.78073676 67.93509022 -37.79418945 65.15283203 C-37.81121174 61.58732577 -37.81500257 58.02196114 -37.81424427 54.45641899 C-37.81458148 51.05165619 -37.82341779 47.64693984 -37.83203125 44.2421875 C-37.83314407 42.96092987 -37.8342569 41.67967224 -37.83540344 40.35958862 C-37.84178329 39.17470856 -37.84816315 37.98982849 -37.85473633 36.76904297 C-37.85854813 35.72489227 -37.86235992 34.68074158 -37.86628723 33.60494995 C-37.88954419 30.88606769 -37.88954419 30.88606769 -39 28 C-40.98 27.67 -42.96 27.34 -45 27 C-45.33 25.68 -45.66 24.36 -46 23 C-45.38817871 22.72961914 -44.77635742 22.45923828 -44.14599609 22.18066406 C-29.02387019 15.46284756 -14.40225951 8.14740455 0 0 Z M-13 18 C-13 32.85 -13 47.7 -13 63 C-6.9491257 58.51765849 -6.9491257 58.51765849 -1.15625 53.7890625 C-0.24746094 53.00595703 -0.24746094 53.00595703 0.6796875 52.20703125 C1.28039063 51.68496094 1.88109375 51.16289063 2.5 50.625 C3.13164063 50.07972656 3.76328125 49.53445312 4.4140625 48.97265625 C5.94470095 47.65074123 7.4726462 46.32570877 9 45 C5.34748512 40.09794056 1.6574761 35.22596548 -2.0625 30.375 C-2.4735498 29.83721924 -2.88459961 29.29943848 -3.30810547 28.74536133 C-6.12052285 25.0851898 -8.97787986 21.48827039 -12 18 C-12.33 18 -12.66 18 -13 18 Z " fill="#FFFFFF" transform="translate(1599,46)"/>
<path d="M0 0 C3.59032226 3.45687665 6.67220972 7.0128393 9.6875 11 C10.55850417 12.14590143 11.42960074 13.29173263 12.30078125 14.4375 C12.74373535 15.02273437 13.18668945 15.60796875 13.64306641 16.2109375 C15.87319494 19.15127249 18.1244646 22.07527495 20.375 25 C21.16648437 26.03125 21.95796875 27.0625 22.7734375 28.125 C24.82316366 30.77166395 26.90065825 33.39259837 29 36 C27.44108354 40.15388298 24.40280165 42.46918555 21.0625 45.1875 C20.47984375 45.67089844 19.8971875 46.15429688 19.296875 46.65234375 C17.53728128 48.109088 15.77001598 49.55594636 14 51 C13.06027344 51.76957031 12.12054688 52.53914063 11.15234375 53.33203125 C9.38524557 54.7764193 7.61571239 56.21783347 5.84375 57.65625 C3.71924359 59.40721682 1.61887581 61.17476826 -0.46875 62.96875 C-1.05591797 63.47212891 -1.64308594 63.97550781 -2.24804688 64.49414062 C-3.39332153 65.47854058 -4.53539788 66.46667703 -5.67382812 67.45898438 C-8.11787474 69.55777533 -9.90978071 70.9699269 -13 72 C-13 79.26 -13 86.52 -13 94 C-10.03 94.99 -7.06 95.98 -4 97 C-2.31008021 97.9601817 -0.63790712 98.95355934 1 100 C4.5464844 101.85271851 4.5464844 101.85271851 8.38671875 101.3828125 C10.76379314 100.08329136 12.85275094 98.65020067 15 97 C16.31165381 96.06131646 17.62408385 95.12371606 18.9375 94.1875 C19.948125 93.465625 20.95875 92.74375 22 92 C22.66 92 23.32 92 24 92 C24.66 93.65 25.32 95.3 26 97 C21.42799574 100.19637043 16.83841987 103.36494889 12.23046875 106.50927734 C10.66577327 107.58257281 9.10613045 108.66327332 7.55175781 109.75146484 C5.31563619 111.31503648 3.0626575 112.85102128 0.8046875 114.3828125 C0.1138205 114.87435822 -0.57704651 115.36590393 -1.28884888 115.87234497 C-6.19640773 119.14741944 -6.19640773 119.14741944 -10.26318359 118.40136719 C-11.16633301 117.93891602 -12.06948242 117.47646484 -13 117 C-13.95422852 116.55551514 -13.95422852 116.55551514 -14.92773438 116.10205078 C-15.47751953 115.80282715 -16.02730469 115.50360352 -16.59375 115.1953125 C-17.22539062 114.86080078 -17.85703125 114.52628906 -18.5078125 114.18164062 C-19.16523438 113.83294922 -19.82265625 113.48425781 -20.5 113.125 C-27.80921501 109.34035965 -34.97104389 106.90687708 -43 105 C-43.61328125 102.625 -43.61328125 102.625 -44 100 C-42.1875 98 -42.1875 98 -40 96 C-38.09662312 92.19586173 -37.75143401 89.09017794 -37.75708008 84.86450195 C-37.75400345 83.65006912 -37.75092682 82.43563629 -37.74775696 81.18440247 C-37.75494247 79.88218246 -37.76212799 78.57996246 -37.76953125 77.23828125 C-37.77072426 75.88258406 -37.77117596 74.52688604 -37.7709198 73.17118835 C-37.7724801 70.33762396 -37.78073734 67.50418672 -37.79418945 64.6706543 C-37.81122742 61.035548 -37.81500214 57.40058059 -37.81424427 53.76543903 C-37.81451583 50.96966726 -37.81999398 48.17392595 -37.82724571 45.37816429 C-37.83197959 43.38503261 -37.8337081 41.39189452 -37.83540344 39.39875793 C-37.84178329 38.19378159 -37.84816315 36.98880524 -37.85473633 35.74731445 C-37.85854813 34.68317825 -37.86235992 33.61904205 -37.86628723 32.5226593 C-37.83143412 30.00442816 -37.83143412 30.00442816 -39 28 C-40.97888961 27.27306096 -42.97954558 26.60183749 -45 26 C-45 25.01 -45 24.02 -45 23 C-44.27635254 22.65855957 -43.55270508 22.31711914 -42.80712891 21.96533203 C-28.27286366 15.08868252 -13.92438759 8.06340353 0 0 Z M-13 17 C-13 32.18 -13 47.36 -13 63 C-7.90789784 59.18092338 -2.8829342 55.38161183 2 51.3125 C2.87591797 50.60383789 2.87591797 50.60383789 3.76953125 49.88085938 C5.2384966 48.65442812 6.62712128 47.33311546 8 46 C8 42.42691954 7.32500132 41.77964095 5.1484375 39.05078125 C4.54386719 38.28443359 3.93929687 37.51808594 3.31640625 36.72851562 C2.67574219 35.93123047 2.03507812 35.13394531 1.375 34.3125 C0.1321532 32.74661681 -1.11003937 31.18021413 -2.3515625 29.61328125 C-2.96032227 28.84967285 -3.56908203 28.08606445 -4.19628906 27.29931641 C-6.48004107 24.38805809 -8.67342396 21.41519792 -10.84912109 18.42260742 C-11.22891113 17.95314697 -11.60870117 17.48368652 -12 17 C-12.33 17 -12.66 17 -13 17 Z " fill="#FFFFFF" transform="translate(315,46)"/>
<path d="M0 0 C6.51401669 2.16366632 11.54254667 7.20211758 15.24609375 12.92578125 C16.0625 14.5625 16.0625 14.5625 17 17 C22.00150944 14.38756109 25.76718696 10.67199962 29.8125 6.8125 C30.50537109 6.15830078 31.19824219 5.50410156 31.91210938 4.83007812 C33.61192944 3.22404124 35.30771031 1.61396358 37 0 C40.1852913 1.37641911 42.01325187 2.87406093 44.19921875 5.5546875 C45.05290039 6.60076172 45.05290039 6.60076172 45.92382812 7.66796875 C46.50583984 8.39628906 47.08785156 9.12460937 47.6875 9.875 C48.28111328 10.59558594 48.87472656 11.31617188 49.48632812 12.05859375 C54.6147076 18.40912979 54.6147076 18.40912979 55 22 C53.0859375 24.4375 53.0859375 24.4375 50.375 27 C49.49585938 27.845625 48.61671875 28.69125 47.7109375 29.5625 C42.38185499 34.35406699 42.38185499 34.35406699 40 36 C36.7878962 34.92929873 36.26834536 34.409251 34.30078125 31.83984375 C33.81416016 31.21142578 33.32753906 30.58300781 32.82617188 29.93554688 C32.32666016 29.27619141 31.82714844 28.61683594 31.3125 27.9375 C30.80138672 27.27427734 30.29027344 26.61105469 29.76367188 25.92773438 C28.50290591 24.2899169 27.25063216 22.64556863 26 21 C23.77382267 22.05354071 22.12920379 22.87079621 20.375 24.625 C19.92125 25.07875 19.4675 25.5325 19 26 C18.34 26 17.68 26 17 26 C16.92200753 34.48495913 16.8927566 42.96812089 16.92484188 51.45330906 C16.93823023 55.39398021 16.93515608 59.3331746 16.89379883 63.27368164 C16.85446131 67.08050422 16.85923105 70.88500452 16.89392281 74.69184685 C16.89949964 76.14024285 16.8894786 77.58878975 16.86323357 79.03695869 C16.54668259 87.3116048 16.54668259 87.3116048 20.07693481 94.49118042 C22.31287303 96.24453259 24.48017963 97.69496034 27 99 C27.65194336 98.53980469 28.30388672 98.07960938 28.97558594 97.60546875 C29.72614258 97.07566406 30.47669922 96.54585938 31.25 96 C32.03890625 95.443125 32.8278125 94.88625 33.640625 94.3125 C36 93 36 93 40 93 C40.66 94.32 41.32 95.64 42 97 C28 108 28 108 14 119 C10.69828055 117.10179892 7.7873658 115.07227316 4.875 112.625 C-0.97980515 107.99607532 -7.67984078 104.60395097 -15 103 C-15.3125 100.8125 -15.3125 100.8125 -15 98 C-14.21625 97.29875 -13.4325 96.5975 -12.625 95.875 C-6.669143 89.35191853 -7.70134842 78.49300842 -7.734375 70.0859375 C-7.73246155 68.99084869 -7.7305481 67.89575989 -7.72857666 66.76748657 C-7.72722506 64.46998869 -7.73084923 62.1724829 -7.73925781 59.875 C-7.74999255 56.37742863 -7.73931656 52.88036838 -7.7265625 49.3828125 C-7.72788387 47.13801971 -7.73044581 44.89322724 -7.734375 42.6484375 C-7.73032654 41.61383392 -7.72627808 40.57923035 -7.72210693 39.51327515 C-7.64570909 30.53982985 -7.64570909 30.53982985 -10 22 C-11.99709437 20.72723806 -11.99709437 20.72723806 -14 20 C-15.32 21.32 -16.64 22.64 -18 24 C-19.32 23.34 -20.64 22.68 -22 22 C-22 19 -22 19 -20.73413086 17.5612793 C-20.15026611 17.07054932 -19.56640137 16.57981934 -18.96484375 16.07421875 C-17.99708008 15.24954102 -17.99708008 15.24954102 -17.00976562 14.40820312 C-16.32591797 13.84037109 -15.64207031 13.27253906 -14.9375 12.6875 C-14.28072266 12.13126953 -13.62394531 11.57503906 -12.94726562 11.00195312 C-11.62906116 9.88634954 -10.30794083 8.77418197 -8.98388672 7.66552734 C-5.96868902 5.13418613 -2.98552521 2.56623168 0 0 Z " fill="#FFFFFF" transform="translate(763,46)"/>
<path d="M0 0 C4.31423445 2.39141086 7.90612517 5.29905066 11.625 8.5 C12.19734375 8.98597656 12.7696875 9.47195312 13.359375 9.97265625 C16.00413257 12.22992608 18.56333982 14.52081363 21 17 C20.50384186 17.31588074 20.00768372 17.63176147 19.49649048 17.95721436 C15.92766409 20.74728093 14.21299727 22.87947627 13.35369873 27.40002441 C13.13948254 31.72450953 13.13208772 36.00116128 13.2109375 40.328125 C13.21638551 41.92518444 13.21916129 43.52225502 13.21939087 45.11932373 C13.22709701 48.45511041 13.25795551 51.78957129 13.30712891 55.125 C13.36959405 59.40141281 13.38797595 63.67656272 13.39092064 67.95338821 C13.39561775 71.24599565 13.41639338 74.53833438 13.44279861 77.83083344 C13.45485852 79.40808683 13.46356168 80.98536959 13.468853 82.56266022 C13.48005389 84.76265481 13.51117589 86.96144319 13.54833984 89.16113281 C13.56279144 90.41242981 13.57724304 91.66372681 13.59213257 92.95294189 C13.75710552 95.97336431 13.75710552 95.97336431 15.36807251 97.93914795 C17.03549238 99.25706671 17.03549238 99.25706671 19.5625 98.8125 C22.14441272 98.15372967 22.14441272 98.15372967 24 96 C26.125 96.375 26.125 96.375 28 97 C28.33 98.32 28.66 99.64 29 101 C17 110 17 110 5 119 C-0.54092323 115.00990691 -5.61675155 110.71712577 -10.60546875 106.05078125 C-12.95216814 104.04096529 -15.30854517 102.50587615 -18 101 C-17.5037037 96.40925926 -17.5037037 96.40925926 -15 94.375 C-14.34 93.92125 -13.68 93.4675 -13 93 C-11.89161862 89.67485585 -11.83219208 87.10830142 -11.77539062 83.60424805 C-11.75830551 82.63781372 -11.75830551 82.63781372 -11.74087524 81.65185547 C-11.63043037 74.92776134 -11.58283827 68.20259266 -11.54003906 61.4777832 C-11.51775185 58.28908565 -11.47596384 55.10155639 -11.41699219 51.91333008 C-11.34583534 48.05827505 -11.30919914 44.20432032 -11.29692078 40.34864235 C-11.28653406 38.88256233 -11.26414174 37.41651471 -11.22932434 35.95081139 C-10.78445075 27.93909142 -10.78445075 27.93909142 -13.60717773 20.73135376 C-15.34142813 19.23010844 -16.96763057 18.05310656 -19 17 C-17.85996443 13.57989328 -17.0347234 12.99875989 -14.21875 10.8984375 C-13.45949219 10.32609375 -12.70023438 9.75375 -11.91796875 9.1640625 C-11.12003906 8.57367188 -10.32210938 7.98328125 -9.5 7.375 C-7.9267784 6.19571919 -6.35384622 5.01605215 -4.78125 3.8359375 C-3.7303418 3.05549072 -3.7303418 3.05549072 -2.65820312 2.25927734 C-1.05767626 1.10283485 -1.05767626 1.10283485 0 0 Z " fill="#FFFFFF" transform="translate(1361,46)"/>
<path d="M0 0 C4.36316102 2.4066967 7.94926058 5.37362075 11.6875 8.625 C15.59201959 12.17332825 15.59201959 12.17332825 20 15 C19.64346505 18.20881452 18.98846059 19.01009999 16.4876709 21.19894409 C13.34461121 24.73795157 13.37713299 26.45227196 13.38476562 31.12939453 C13.37921661 31.82756287 13.3736676 32.5257312 13.36795044 33.24505615 C13.35618516 35.54168369 13.38038887 37.83632452 13.40625 40.1328125 C13.40796167 41.73273631 13.40789485 43.33266292 13.40612793 44.93258667 C13.40777923 48.28003897 13.42644512 51.62681998 13.45800781 54.97412109 C13.49774969 59.26624435 13.50204466 63.55749146 13.49454498 67.84976387 C13.49147737 71.15090982 13.50358717 74.45185846 13.52067566 77.75295639 C13.52770867 79.33580157 13.53082983 80.91866911 13.52998352 82.50152969 C13.53177941 84.71123039 13.55313903 86.91987608 13.58007812 89.12939453 C13.58849731 90.38672394 13.5969165 91.64405334 13.60559082 92.93948364 C13.75456959 95.97177247 13.75456959 95.97177247 15.36608887 97.94113159 C17.03572393 99.25656753 17.03572393 99.25656753 19.5625 98.8125 C22.14441272 98.15372967 22.14441272 98.15372967 24 96 C26.125 96.375 26.125 96.375 28 97 C28.33 98.32 28.66 99.64 29 101 C17 110 17 110 5 119 C-0.54092323 115.00990691 -5.61675155 110.71712577 -10.60546875 106.05078125 C-12.95216814 104.04096529 -15.30854517 102.50587615 -18 101 C-17.5037037 96.40925926 -17.5037037 96.40925926 -15 94.375 C-14.34 93.92125 -13.68 93.4675 -13 93 C-11.89161862 89.67485585 -11.83219208 87.10830142 -11.77539062 83.60424805 C-11.75830551 82.63781372 -11.75830551 82.63781372 -11.74087524 81.65185547 C-11.63043037 74.92776134 -11.58283827 68.20259266 -11.54003906 61.4777832 C-11.51775185 58.28908565 -11.47596384 55.10155639 -11.41699219 51.91333008 C-11.34583534 48.05827505 -11.30919914 44.20432032 -11.29692078 40.34864235 C-11.28653406 38.88256233 -11.26414174 37.41651471 -11.22932434 35.95081139 C-10.78445075 27.93909142 -10.78445075 27.93909142 -13.60717773 20.73135376 C-15.34142813 19.23010844 -16.96763057 18.05310656 -19 17 C-17.60594537 12.81783612 -14.58038981 11.07109439 -11.1875 8.5 C-10.55779297 8.01402344 -9.92808594 7.52804688 -9.27929688 7.02734375 C-6.20519829 4.65967495 -3.11073836 2.31934145 0 0 Z " fill="#FFFFFF" transform="translate(1050,46)"/>
<path d="M0 0 C6.27 0 12.54 0 19 0 C19 4.3802935 18.59406218 5.03830793 16.078125 8.37109375 C15.46453125 9.19287109 14.8509375 10.01464844 14.21875 10.86132812 C13.5690625 11.71146484 12.919375 12.56160156 12.25 13.4375 C11.61578125 14.28376953 10.9815625 15.13003906 10.328125 16.00195312 C7.28247425 20.05330313 4.19798758 24.06712134 1 28 C-0.98 27.67 -2.96 27.34 -5 27 C-4.40816631 17.67861946 -2.22762957 9.05423631 0 0 Z " fill="#FFFFFF" transform="translate(1058,0)"/>
<path d="M0 0 C6.27 0 12.54 0 19 0 C19 4.3802935 18.59406218 5.03830793 16.078125 8.37109375 C15.46453125 9.19287109 14.8509375 10.01464844 14.21875 10.86132812 C13.5690625 11.71146484 12.919375 12.56160156 12.25 13.4375 C11.61578125 14.28376953 10.9815625 15.13003906 10.328125 16.00195312 C7.28247425 20.05330313 4.19798758 24.06712134 1 28 C-0.98 27.67 -2.96 27.34 -5 27 C-4.40816631 17.67861946 -2.22762957 9.05423631 0 0 Z " fill="#FFFFFF" transform="translate(1369,0)"/>
</svg>
